{
    "asset" : {
        "generator" : "Khronos glTF Blender I/O v1.7.33",
        "version" : "2.0"
    },
    "scene" : 0,
    "scenes" : [
        {
            "name" : "Scene",
            "nodes" : [
                0,
                1,
                2
            ]
        }
    ],
    "nodes" : [
        {
            "name" : "Light.001",
            "rotation" : [
                0.16907575726509094,
                0.7558803558349609,
                -0.27217137813568115,
                0.570947527885437
            ],
            "translation" : [
                4.076245307922363,
                5.903861999511719,
                -1.0054539442062378
            ]
        },
        {
            "name" : "Camera.001",
            "rotation" : [
                0.483536034822464,
                0.33687159419059753,
                -0.20870360732078552,
                0.7804827094078064
            ],
            "translation" : [
                7.358891487121582,
                4.958309173583984,
                6.925790786743164
            ]
        },
        {
            "mesh" : 0,
            "name" : "BlazikenM",
            "scale" : [
                0.020000003278255463,
                0.020000003278255463,
                0.020000003278255463
            ]
        }
    ],
    "materials" : [
        {
            "doubleSided" : true,
            "name" : "Material__10",
            "pbrMetallicRoughness" : {
                "baseColorTexture" : {
                    "index" : 0
                },
                "metallicFactor" : 0,
                "roughnessFactor" : 0.5
            }
        },
        {
            "doubleSided" : true,
            "name" : "Material__11",
            "pbrMetallicRoughness" : {
                "baseColorTexture" : {
                    "index" : 1
                },
                "metallicFactor" : 0,
                "roughnessFactor" : 0.5
            }
        },
        {
            "doubleSided" : true,
            "name" : "Material__12",
            "pbrMetallicRoughness" : {
                "baseColorTexture" : {
                    "index" : 2
                },
                "metallicFactor" : 0,
                "roughnessFactor" : 0.5
            }
        },
        {
            "doubleSided" : true,
            "name" : "Material__13",
            "pbrMetallicRoughness" : {
                "baseColorTexture" : {
                    "index" : 3
                },
                "metallicFactor" : 0,
                "roughnessFactor" : 0.5
            }
        },
        {
            "doubleSided" : true,
            "name" : "Material__14",
            "pbrMetallicRoughness" : {
                "baseColorTexture" : {
                    "index" : 4
                },
                "metallicFactor" : 0,
                "roughnessFactor" : 0.5
            }
        }
    ],
    "meshes" : [
        {
            "name" : "BlazikenM",
            "primitives" : [
                {
                    "attributes" : {
                        "POSITION" : 0,
                        "NORMAL" : 1,
                        "TEXCOORD_0" : 2
                    },
                    "indices" : 3,
                    "material" : 0
                },
                {
                    "attributes" : {
                        "POSITION" : 4,
                        "NORMAL" : 5,
                        "TEXCOORD_0" : 6
                    },
                    "indices" : 7,
                    "material" : 1
                },
                {
                    "attributes" : {
                        "POSITION" : 8,
                        "NORMAL" : 9,
                        "TEXCOORD_0" : 10
                    },
                    "indices" : 11,
                    "material" : 2
                },
                {
                    "attributes" : {
                        "POSITION" : 12,
                        "NORMAL" : 13,
                        "TEXCOORD_0" : 14
                    },
                    "indices" : 15,
                    "material" : 3
                },
                {
                    "attributes" : {
                        "POSITION" : 16,
                        "NORMAL" : 17,
                        "TEXCOORD_0" : 18
                    },
                    "indices" : 19,
                    "material" : 4
                }
            ]
        }
    ],
    "textures" : [
        {
            "sampler" : 0,
            "source" : 0
        },
        {
            "sampler" : 0,
            "source" : 1
        },
        {
            "sampler" : 0,
            "source" : 2
        },
        {
            "sampler" : 0,
            "source" : 3
        },
        {
            "sampler" : 0,
            "source" : 4
        }
    ],
    "images" : [
        {
            "bufferView" : 4,
            "mimeType" : "image/png",
            "name" : "pm0257_00_BodyB1"
        },
        {
            "bufferView" : 9,
            "mimeType" : "image/png",
            "name" : "pm0257_00_Eye1"
        },
        {
            "bufferView" : 14,
            "mimeType" : "image/png",
            "name" : "pm0257_00_BodyA1"
        },
        {
            "bufferView" : 19,
            "mimeType" : "image/png",
            "name" : "pm0257_00_FireCoreA1"
        },
        {
            "bufferView" : 24,
            "mimeType" : "image/png",
            "name" : "pm0257_00_FireStenA1"
        }
    ],
    "accessors" : [
        {
            "bufferView" : 0,
            "componentType" : 5126,
            "count" : 1931,
            "max" : [
                52.82094955444336,
                191.7390594482422,
                26.437074661254883
            ],
            "min" : [
                -52.820640563964844,
                117.24705505371094,
                -56.445228576660156
            ],
            "type" : "VEC3"
        },
        {
            "bufferView" : 1,
            "componentType" : 5126,
            "count" : 1931,
            "type" : "VEC3"
        },
        {
            "bufferView" : 2,
            "componentType" : 5126,
            "count" : 1931,
            "type" : "VEC2"
        },
        {
            "bufferView" : 3,
            "componentType" : 5123,
            "count" : 9390,
            "type" : "SCALAR"
        },
        {
            "bufferView" : 5,
            "componentType" : 5126,
            "count" : 24,
            "max" : [
                11.685673713684082,
                175.25205993652344,
                19.7437744140625
            ],
            "min" : [
                -11.685729026794434,
                163.92103576660156,
                9.393167495727539
            ],
            "type" : "VEC3"
        },
        {
            "bufferView" : 6,
            "componentType" : 5126,
            "count" : 24,
            "type" : "VEC3"
        },
        {
            "bufferView" : 7,
            "componentType" : 5126,
            "count" : 24,
            "type" : "VEC2"
        },
        {
            "bufferView" : 8,
            "componentType" : 5123,
            "count" : 72,
            "type" : "SCALAR"
        },
        {
            "bufferView" : 10,
            "componentType" : 5126,
            "count" : 2114,
            "max" : [
                96.63742065429688,
                152.20509338378906,
                25.124191284179688
            ],
            "min" : [
                -96.63743591308594,
                -0.20006710290908813,
                -44.81551742553711
            ],
            "type" : "VEC3"
        },
        {
            "bufferView" : 11,
            "componentType" : 5126,
            "count" : 2114,
            "type" : "VEC3"
        },
        {
            "bufferView" : 12,
            "componentType" : 5126,
            "count" : 2114,
            "type" : "VEC2"
        },
        {
            "bufferView" : 13,
            "componentType" : 5123,
            "count" : 9666,
            "type" : "SCALAR"
        },
        {
            "bufferView" : 15,
            "componentType" : 5126,
            "count" : 154,
            "max" : [
                69.99800872802734,
                162.5460662841797,
                26.63308334350586
            ],
            "min" : [
                -69.9980239868164,
                133.19400024414062,
                -22.50332260131836
            ],
            "type" : "VEC3"
        },
        {
            "bufferView" : 16,
            "componentType" : 5126,
            "count" : 154,
            "type" : "VEC3"
        },
        {
            "bufferView" : 17,
            "componentType" : 5126,
            "count" : 154,
            "type" : "VEC2"
        },
        {
            "bufferView" : 18,
            "componentType" : 5123,
            "count" : 438,
            "type" : "SCALAR"
        },
        {
            "bufferView" : 20,
            "componentType" : 5126,
            "count" : 172,
            "max" : [
                69.99800872802734,
                162.5460662841797,
                26.63308334350586
            ],
            "min" : [
                -69.9980239868164,
                133.19400024414062,
                -22.50332260131836
            ],
            "type" : "VEC3"
        },
        {
            "bufferView" : 21,
            "componentType" : 5126,
            "count" : 172,
            "type" : "VEC3"
        },
        {
            "bufferView" : 22,
            "componentType" : 5126,
            "count" : 172,
            "type" : "VEC2"
        },
        {
            "bufferView" : 23,
            "componentType" : 5123,
            "count" : 876,
            "type" : "SCALAR"
        }
    ],
    "bufferViews" : [
        {
            "buffer" : 0,
            "byteLength" : 23172,
            "byteOffset" : 0
        },
        {
            "buffer" : 0,
            "byteLength" : 23172,
            "byteOffset" : 23172
        },
        {
            "buffer" : 0,
            "byteLength" : 15448,
            "byteOffset" : 46344
        },
        {
            "buffer" : 0,
            "byteLength" : 18780,
            "byteOffset" : 61792
        },
        {
            "buffer" : 0,
            "byteLength" : 56223,
            "byteOffset" : 80572
        },
        {
            "buffer" : 0,
            "byteLength" : 288,
            "byteOffset" : 136796
        },
        {
            "buffer" : 0,
            "byteLength" : 288,
            "byteOffset" : 137084
        },
        {
            "buffer" : 0,
            "byteLength" : 192,
            "byteOffset" : 137372
        },
        {
            "buffer" : 0,
            "byteLength" : 144,
            "byteOffset" : 137564
        },
        {
            "buffer" : 0,
            "byteLength" : 26208,
            "byteOffset" : 137708
        },
        {
            "buffer" : 0,
            "byteLength" : 25368,
            "byteOffset" : 163916
        },
        {
            "buffer" : 0,
            "byteLength" : 25368,
            "byteOffset" : 189284
        },
        {
            "buffer" : 0,
            "byteLength" : 16912,
            "byteOffset" : 214652
        },
        {
            "buffer" : 0,
            "byteLength" : 19332,
            "byteOffset" : 231564
        },
        {
            "buffer" : 0,
            "byteLength" : 60873,
            "byteOffset" : 250896
        },
        {
            "buffer" : 0,
            "byteLength" : 1848,
            "byteOffset" : 311772
        },
        {
            "buffer" : 0,
            "byteLength" : 1848,
            "byteOffset" : 313620
        },
        {
            "buffer" : 0,
            "byteLength" : 1232,
            "byteOffset" : 315468
        },
        {
            "buffer" : 0,
            "byteLength" : 876,
            "byteOffset" : 316700
        },
        {
            "buffer" : 0,
            "byteLength" : 710,
            "byteOffset" : 317576
        },
        {
            "buffer" : 0,
            "byteLength" : 2064,
            "byteOffset" : 318288
        },
        {
            "buffer" : 0,
            "byteLength" : 2064,
            "byteOffset" : 320352
        },
        {
            "buffer" : 0,
            "byteLength" : 1376,
            "byteOffset" : 322416
        },
        {
            "buffer" : 0,
            "byteLength" : 1752,
            "byteOffset" : 323792
        },
        {
            "buffer" : 0,
            "byteLength" : 9046,
            "byteOffset" : 325544
        }
    ],
    "samplers" : [
        {
            "magFilter" : 9729,
            "minFilter" : 9987
        }
    ],
    "buffers" : [
        {
            "byteLength" : 334592,
            "uri" : "data:application/octet-stream;base64,"
        }
    ]
}
