{
    "asset" : {
        "generator" : "Khronos glTF Blender I/O v1.7.33",
        "version" : "2.0"
    },
    "scene" : 0,
    "scenes" : [
        {
            "name" : "Scene",
            "nodes" : [
                0
            ]
        }
    ],
    "nodes" : [
        {
            "mesh" : 0,
            "name" : "Charmander",
            "scale" : [
                0.05000002309679985,
                0.05000002309679985,
                0.05000002309679985
            ]
        }
    ],
    "materials" : [
        {
            "doubleSided" : true,
            "name" : "Material #34",
            "pbrMetallicRoughness" : {
                "baseColorTexture" : {
                    "index" : 0
                },
                "metallicFactor" : 0,
                "roughnessFactor" : 0.858578622341156
            }
        },
        {
            "doubleSided" : true,
            "name" : "Material #35",
            "pbrMetallicRoughness" : {
                "baseColorTexture" : {
                    "index" : 1
                },
                "metallicFactor" : 0,
                "roughnessFactor" : 0.858578622341156
            }
        },
        {
            "doubleSided" : true,
            "name" : "Material #36",
            "pbrMetallicRoughness" : {
                "baseColorTexture" : {
                    "index" : 2
                },
                "metallicFactor" : 0,
                "roughnessFactor" : 0.858578622341156
            }
        },
        {
            "doubleSided" : true,
            "name" : "Material #37",
            "pbrMetallicRoughness" : {
                "baseColorTexture" : {
                    "index" : 3
                },
                "metallicFactor" : 0,
                "roughnessFactor" : 0.858578622341156
            }
        }
    ],
    "meshes" : [
        {
            "name" : "Charmander",
            "primitives" : [
                {
                    "attributes" : {
                        "POSITION" : 0,
                        "NORMAL" : 1,
                        "TEXCOORD_0" : 2
                    },
                    "indices" : 3,
                    "material" : 0
                },
                {
                    "attributes" : {
                        "POSITION" : 4,
                        "NORMAL" : 5,
                        "TEXCOORD_0" : 6
                    },
                    "indices" : 7,
                    "material" : 1
                },
                {
                    "attributes" : {
                        "POSITION" : 8,
                        "NORMAL" : 9,
                        "TEXCOORD_0" : 10
                    },
                    "indices" : 11,
                    "material" : 2
                },
                {
                    "attributes" : {
                        "POSITION" : 12,
                        "NORMAL" : 13,
                        "TEXCOORD_0" : 14
                    },
                    "indices" : 15,
                    "material" : 3
                }
            ]
        }
    ],
    "textures" : [
        {
            "sampler" : 0,
            "source" : 0
        },
        {
            "sampler" : 0,
            "source" : 1
        },
        {
            "sampler" : 0,
            "source" : 2
        },
        {
            "sampler" : 0,
            "source" : 3
        }
    ],
    "images" : [
        {
            "bufferView" : 4,
            "mimeType" : "image/png",
            "name" : "pm0004_00_Eye1"
        },
        {
            "bufferView" : 9,
            "mimeType" : "image/png",
            "name" : "pm0004_00_Body1"
        },
        {
            "bufferView" : 14,
            "mimeType" : "image/png",
            "name" : "pm0004_00_FireCoreA1"
        },
        {
            "bufferView" : 19,
            "mimeType" : "image/png",
            "name" : "pm0004_00_FireStenA1"
        }
    ],
    "accessors" : [
        {
            "bufferView" : 0,
            "componentType" : 5126,
            "count" : 120,
            "max" : [
                9.9769287109375,
                54.58190155029297,
                14.33530044555664
            ],
            "min" : [
                -9.9769287109375,
                44.59659957885742,
                4.34859037399292
            ],
            "type" : "VEC3"
        },
        {
            "bufferView" : 1,
            "componentType" : 5126,
            "count" : 120,
            "type" : "VEC3"
        },
        {
            "bufferView" : 2,
            "componentType" : 5126,
            "count" : 120,
            "type" : "VEC2"
        },
        {
            "bufferView" : 3,
            "componentType" : 5123,
            "count" : 576,
            "type" : "SCALAR"
        },
        {
            "bufferView" : 5,
            "componentType" : 5126,
            "count" : 2697,
            "max" : [
                26.600299835205078,
                59.80820083618164,
                18.891002655029297
            ],
            "min" : [
                -26.600299835205078,
                -9.999999974752427e-07,
                -53.20709991455078
            ],
            "type" : "VEC3"
        },
        {
            "bufferView" : 6,
            "componentType" : 5126,
            "count" : 2697,
            "type" : "VEC3"
        },
        {
            "bufferView" : 7,
            "componentType" : 5126,
            "count" : 2697,
            "type" : "VEC2"
        },
        {
            "bufferView" : 8,
            "componentType" : 5123,
            "count" : 12690,
            "type" : "SCALAR"
        },
        {
            "bufferView" : 10,
            "componentType" : 5126,
            "count" : 166,
            "max" : [
                7.715760231018066,
                35.835201263427734,
                -44.28850173950195
            ],
            "min" : [
                -7.715760231018066,
                6.6779398918151855,
                -59.720001220703125
            ],
            "type" : "VEC3"
        },
        {
            "bufferView" : 11,
            "componentType" : 5126,
            "count" : 166,
            "type" : "VEC3"
        },
        {
            "bufferView" : 12,
            "componentType" : 5126,
            "count" : 166,
            "type" : "VEC2"
        },
        {
            "bufferView" : 13,
            "componentType" : 5123,
            "count" : 528,
            "type" : "SCALAR"
        },
        {
            "bufferView" : 15,
            "componentType" : 5126,
            "count" : 107,
            "max" : [
                8.567429542541504,
                37.02329635620117,
                -43.330101013183594
            ],
            "min" : [
                -8.567420959472656,
                6.0622711181640625,
                -60.64249801635742
            ],
            "type" : "VEC3"
        },
        {
            "bufferView" : 16,
            "componentType" : 5126,
            "count" : 107,
            "type" : "VEC3"
        },
        {
            "bufferView" : 17,
            "componentType" : 5126,
            "count" : 107,
            "type" : "VEC2"
        },
        {
            "bufferView" : 18,
            "componentType" : 5123,
            "count" : 576,
            "type" : "SCALAR"
        }
    ],
    "bufferViews" : [
        {
            "buffer" : 0,
            "byteLength" : 1440,
            "byteOffset" : 0
        },
        {
            "buffer" : 0,
            "byteLength" : 1440,
            "byteOffset" : 1440
        },
        {
            "buffer" : 0,
            "byteLength" : 960,
            "byteOffset" : 2880
        },
        {
            "buffer" : 0,
            "byteLength" : 1152,
            "byteOffset" : 3840
        },
        {
            "buffer" : 0,
            "byteLength" : 34608,
            "byteOffset" : 4992
        },
        {
            "buffer" : 0,
            "byteLength" : 32364,
            "byteOffset" : 39600
        },
        {
            "buffer" : 0,
            "byteLength" : 32364,
            "byteOffset" : 71964
        },
        {
            "buffer" : 0,
            "byteLength" : 21576,
            "byteOffset" : 104328
        },
        {
            "buffer" : 0,
            "byteLength" : 25380,
            "byteOffset" : 125904
        },
        {
            "buffer" : 0,
            "byteLength" : 26794,
            "byteOffset" : 151284
        },
        {
            "buffer" : 0,
            "byteLength" : 1992,
            "byteOffset" : 178080
        },
        {
            "buffer" : 0,
            "byteLength" : 1992,
            "byteOffset" : 180072
        },
        {
            "buffer" : 0,
            "byteLength" : 1328,
            "byteOffset" : 182064
        },
        {
            "buffer" : 0,
            "byteLength" : 1056,
            "byteOffset" : 183392
        },
        {
            "buffer" : 0,
            "byteLength" : 580,
            "byteOffset" : 184448
        },
        {
            "buffer" : 0,
            "byteLength" : 1284,
            "byteOffset" : 185028
        },
        {
            "buffer" : 0,
            "byteLength" : 1284,
            "byteOffset" : 186312
        },
        {
            "buffer" : 0,
            "byteLength" : 856,
            "byteOffset" : 187596
        },
        {
            "buffer" : 0,
            "byteLength" : 1152,
            "byteOffset" : 188452
        },
        {
            "buffer" : 0,
            "byteLength" : 11646,
            "byteOffset" : 189604
        }
    ],
    "samplers" : [
        {
            "magFilter" : 9729,
            "minFilter" : 9987
        }
    ],
    "buffers" : [
        {
            "byteLength" : 201252,
            "uri" : "data:application/octet-stream;base64,"
        }
    ]
}
