{
    "asset" : {
        "generator" : "Khronos glTF Blender I/O v1.7.33",
        "version" : "2.0"
    },
    "scene" : 0,
    "scenes" : [
        {
            "name" : "Scene",
            "nodes" : [
                0,
                1,
                2
            ]
        }
    ],
    "nodes" : [
        {
            "name" : "Light.001",
            "rotation" : [
                0.16907575726509094,
                0.7558803558349609,
                -0.27217137813568115,
                0.570947527885437
            ],
            "translation" : [
                4.076245307922363,
                5.903861999511719,
                -1.0054539442062378
            ]
        },
        {
            "name" : "Camera.001",
            "rotation" : [
                0.483536034822464,
                0.33687159419059753,
                -0.20870360732078552,
                0.7804827094078064
            ],
            "translation" : [
                7.358891487121582,
                4.958309173583984,
                6.925790786743164
            ]
        },
        {
            "mesh" : 0,
            "name" : "Eevee",
            "scale" : [
                0.020000003278255463,
                0.020000003278255463,
                0.020000003278255463
            ]
        }
    ],
    "materials" : [
        {
            "doubleSided" : true,
            "name" : "Material__12",
            "pbrMetallicRoughness" : {
                "baseColorTexture" : {
                    "index" : 0
                },
                "metallicFactor" : 0,
                "roughnessFactor" : 0.5
            }
        },
        {
            "doubleSided" : true,
            "name" : "Material__13",
            "pbrMetallicRoughness" : {
                "baseColorTexture" : {
                    "index" : 1
                },
                "metallicFactor" : 0,
                "roughnessFactor" : 0.5
            }
        },
        {
            "doubleSided" : true,
            "name" : "Material__14",
            "pbrMetallicRoughness" : {
                "baseColorTexture" : {
                    "index" : 2
                },
                "metallicFactor" : 0,
                "roughnessFactor" : 0.5
            }
        }
    ],
    "meshes" : [
        {
            "name" : "Eevee",
            "primitives" : [
                {
                    "attributes" : {
                        "POSITION" : 0,
                        "NORMAL" : 1,
                        "TEXCOORD_0" : 2
                    },
                    "indices" : 3,
                    "material" : 0
                },
                {
                    "attributes" : {
                        "POSITION" : 4,
                        "NORMAL" : 5,
                        "TEXCOORD_0" : 6
                    },
                    "indices" : 7,
                    "material" : 1
                },
                {
                    "attributes" : {
                        "POSITION" : 8,
                        "NORMAL" : 9,
                        "TEXCOORD_0" : 10
                    },
                    "indices" : 11,
                    "material" : 2
                }
            ]
        }
    ],
    "textures" : [
        {
            "sampler" : 0,
            "source" : 0
        },
        {
            "sampler" : 0,
            "source" : 1
        },
        {
            "sampler" : 0,
            "source" : 2
        }
    ],
    "images" : [
        {
            "bufferView" : 4,
            "mimeType" : "image/png",
            "name" : "pm0133_00_Body1"
        },
        {
            "bufferView" : 9,
            "mimeType" : "image/png",
            "name" : "pm0133_00_Eye1"
        },
        {
            "bufferView" : 14,
            "mimeType" : "image/png",
            "name" : "pm0133_00_Mouth1"
        }
    ],
    "accessors" : [
        {
            "bufferView" : 0,
            "componentType" : 5126,
            "count" : 3206,
            "max" : [
                21.55591583251953,
                36.11353302001953,
                17.179201126098633
            ],
            "min" : [
                -21.555917739868164,
                0.01350798737257719,
                -30.49081802368164
            ],
            "type" : "VEC3"
        },
        {
            "bufferView" : 1,
            "componentType" : 5126,
            "count" : 3206,
            "type" : "VEC3"
        },
        {
            "bufferView" : 2,
            "componentType" : 5126,
            "count" : 3206,
            "type" : "VEC2"
        },
        {
            "bufferView" : 3,
            "componentType" : 5123,
            "count" : 14454,
            "type" : "SCALAR"
        },
        {
            "bufferView" : 5,
            "componentType" : 5126,
            "count" : 60,
            "max" : [
                6.755396842956543,
                26.0842227935791,
                16.70380210876465
            ],
            "min" : [
                -6.755395889282227,
                19.397615432739258,
                11.359092712402344
            ],
            "type" : "VEC3"
        },
        {
            "bufferView" : 6,
            "componentType" : 5126,
            "count" : 60,
            "type" : "VEC3"
        },
        {
            "bufferView" : 7,
            "componentType" : 5126,
            "count" : 60,
            "type" : "VEC2"
        },
        {
            "bufferView" : 8,
            "componentType" : 5123,
            "count" : 240,
            "type" : "SCALAR"
        },
        {
            "bufferView" : 10,
            "componentType" : 5126,
            "count" : 29,
            "max" : [
                2.7389132976531982,
                20.28261947631836,
                17.155200958251953
            ],
            "min" : [
                -2.7389118671417236,
                16.118913650512695,
                14.843698501586914
            ],
            "type" : "VEC3"
        },
        {
            "bufferView" : 11,
            "componentType" : 5126,
            "count" : 29,
            "type" : "VEC3"
        },
        {
            "bufferView" : 12,
            "componentType" : 5126,
            "count" : 29,
            "type" : "VEC2"
        },
        {
            "bufferView" : 13,
            "componentType" : 5123,
            "count" : 108,
            "type" : "SCALAR"
        }
    ],
    "bufferViews" : [
        {
            "buffer" : 0,
            "byteLength" : 38472,
            "byteOffset" : 0
        },
        {
            "buffer" : 0,
            "byteLength" : 38472,
            "byteOffset" : 38472
        },
        {
            "buffer" : 0,
            "byteLength" : 25648,
            "byteOffset" : 76944
        },
        {
            "buffer" : 0,
            "byteLength" : 28908,
            "byteOffset" : 102592
        },
        {
            "buffer" : 0,
            "byteLength" : 61299,
            "byteOffset" : 131500
        },
        {
            "buffer" : 0,
            "byteLength" : 720,
            "byteOffset" : 192800
        },
        {
            "buffer" : 0,
            "byteLength" : 720,
            "byteOffset" : 193520
        },
        {
            "buffer" : 0,
            "byteLength" : 480,
            "byteOffset" : 194240
        },
        {
            "buffer" : 0,
            "byteLength" : 480,
            "byteOffset" : 194720
        },
        {
            "buffer" : 0,
            "byteLength" : 30211,
            "byteOffset" : 195200
        },
        {
            "buffer" : 0,
            "byteLength" : 348,
            "byteOffset" : 225412
        },
        {
            "buffer" : 0,
            "byteLength" : 348,
            "byteOffset" : 225760
        },
        {
            "buffer" : 0,
            "byteLength" : 232,
            "byteOffset" : 226108
        },
        {
            "buffer" : 0,
            "byteLength" : 216,
            "byteOffset" : 226340
        },
        {
            "buffer" : 0,
            "byteLength" : 9583,
            "byteOffset" : 226556
        }
    ],
    "samplers" : [
        {
            "magFilter" : 9729,
            "minFilter" : 9987
        }
    ],
    "buffers" : [
        {
            "byteLength" : 236140,
            "uri" : "data:application/octet-stream;base64,"
        }
    ]
}
