{
    "asset" : {
        "generator" : "Khronos glTF Blender I/O v1.7.33",
        "version" : "2.0"
    },
    "scene" : 0,
    "scenes" : [
        {
            "name" : "Scene",
            "nodes" : [
                0,
                1,
                2
            ]
        }
    ],
    "nodes" : [
        {
            "name" : "Light.001",
            "rotation" : [
                0.16907575726509094,
                0.7558803558349609,
                -0.27217137813568115,
                0.570947527885437
            ],
            "translation" : [
                4.076245307922363,
                5.903861999511719,
                -1.0054539442062378
            ]
        },
        {
            "name" : "Camera.001",
            "rotation" : [
                0.483536034822464,
                0.33687159419059753,
                -0.20870360732078552,
                0.7804827094078064
            ],
            "translation" : [
                7.358891487121582,
                4.958309173583984,
                6.925790786743164
            ]
        },
        {
            "mesh" : 0,
            "name" : "Gengar_TongueA",
            "scale" : [
                0.020000003278255463,
                0.020000003278255463,
                0.020000003278255463
            ]
        }
    ],
    "materials" : [
        {
            "doubleSided" : true,
            "name" : "Material__10.001",
            "pbrMetallicRoughness" : {
                "baseColorTexture" : {
                    "index" : 0
                },
                "metallicFactor" : 0,
                "roughnessFactor" : 0.5
            }
        },
        {
            "doubleSided" : true,
            "name" : "Material__11.001",
            "pbrMetallicRoughness" : {
                "baseColorTexture" : {
                    "index" : 1
                },
                "metallicFactor" : 0,
                "roughnessFactor" : 0.5
            }
        }
    ],
    "meshes" : [
        {
            "name" : "Gengar_TongueA",
            "primitives" : [
                {
                    "attributes" : {
                        "POSITION" : 0,
                        "NORMAL" : 1,
                        "TEXCOORD_0" : 2
                    },
                    "indices" : 3,
                    "material" : 0
                },
                {
                    "attributes" : {
                        "POSITION" : 4,
                        "NORMAL" : 5,
                        "TEXCOORD_0" : 6
                    },
                    "indices" : 7,
                    "material" : 1
                }
            ]
        }
    ],
    "textures" : [
        {
            "sampler" : 0,
            "source" : 0
        },
        {
            "sampler" : 0,
            "source" : 1
        }
    ],
    "images" : [
        {
            "bufferView" : 4,
            "mimeType" : "image/png",
            "name" : "pm0094_00_Body1"
        },
        {
            "bufferView" : 9,
            "mimeType" : "image/png",
            "name" : "pm0094_00_Eye1"
        }
    ],
    "accessors" : [
        {
            "bufferView" : 0,
            "componentType" : 5126,
            "count" : 2870,
            "max" : [
                101.80299377441406,
                156.0760498046875,
                63.07910919189453
            ],
            "min" : [
                -101.802978515625,
                -0.026944546028971672,
                -67.08790588378906
            ],
            "type" : "VEC3"
        },
        {
            "bufferView" : 1,
            "componentType" : 5126,
            "count" : 2870,
            "type" : "VEC3"
        },
        {
            "bufferView" : 2,
            "componentType" : 5126,
            "count" : 2870,
            "type" : "VEC2"
        },
        {
            "bufferView" : 3,
            "componentType" : 5123,
            "count" : 13968,
            "type" : "SCALAR"
        },
        {
            "bufferView" : 5,
            "componentType" : 5126,
            "count" : 84,
            "max" : [
                41.838809967041016,
                111.99403381347656,
                63.07910919189453
            ],
            "min" : [
                -41.83878707885742,
                76.95462036132812,
                42.997013092041016
            ],
            "type" : "VEC3"
        },
        {
            "bufferView" : 6,
            "componentType" : 5126,
            "count" : 84,
            "type" : "VEC3"
        },
        {
            "bufferView" : 7,
            "componentType" : 5126,
            "count" : 84,
            "type" : "VEC2"
        },
        {
            "bufferView" : 8,
            "componentType" : 5123,
            "count" : 360,
            "type" : "SCALAR"
        }
    ],
    "bufferViews" : [
        {
            "buffer" : 0,
            "byteLength" : 34440,
            "byteOffset" : 0
        },
        {
            "buffer" : 0,
            "byteLength" : 34440,
            "byteOffset" : 34440
        },
        {
            "buffer" : 0,
            "byteLength" : 22960,
            "byteOffset" : 68880
        },
        {
            "buffer" : 0,
            "byteLength" : 27936,
            "byteOffset" : 91840
        },
        {
            "buffer" : 0,
            "byteLength" : 25464,
            "byteOffset" : 119776
        },
        {
            "buffer" : 0,
            "byteLength" : 1008,
            "byteOffset" : 145240
        },
        {
            "buffer" : 0,
            "byteLength" : 1008,
            "byteOffset" : 146248
        },
        {
            "buffer" : 0,
            "byteLength" : 672,
            "byteOffset" : 147256
        },
        {
            "buffer" : 0,
            "byteLength" : 720,
            "byteOffset" : 147928
        },
        {
            "buffer" : 0,
            "byteLength" : 28575,
            "byteOffset" : 148648
        }
    ],
    "samplers" : [
        {
            "magFilter" : 9729,
            "minFilter" : 9987
        }
    ],
    "buffers" : [
        {
            "byteLength" : 177224,
            "uri" : "data:application/octet-stream;base64,"
        }
    ]
}
