{
    "asset" : {
        "generator" : "Khronos glTF Blender I/O v1.7.33",
        "version" : "2.0"
    },
    "scene" : 0,
    "scenes" : [
        {
            "name" : "Scene",
            "nodes" : [
                0,
                1,
                2
            ]
        }
    ],
    "nodes" : [
        {
            "name" : "Light.001",
            "rotation" : [
                0.16907575726509094,
                0.7558803558349609,
                -0.27217137813568115,
                0.570947527885437
            ],
            "translation" : [
                4.076245307922363,
                5.903861999511719,
                -1.0054539442062378
            ]
        },
        {
            "name" : "Camera.001",
            "rotation" : [
                0.483536034822464,
                0.33687159419059753,
                -0.20870360732078552,
                0.7804827094078064
            ],
            "translation" : [
                7.358891487121582,
                4.958309173583984,
                6.925790786743164
            ]
        },
        {
            "mesh" : 0,
            "name" : "GyaradosM",
            "rotation" : [
                0.6532814502716064,
                0.27059805393218994,
                0.6532814502716064,
                0.27059805393218994
            ],
            "scale" : [
                0.020000003278255463,
                0.020000003278255463,
                0.020000003278255463
            ]
        }
    ],
    "materials" : [
        {
            "doubleSided" : true,
            "name" : "Material__140.001",
            "pbrMetallicRoughness" : {
                "baseColorTexture" : {
                    "index" : 0
                },
                "metallicFactor" : 0,
                "roughnessFactor" : 0.5
            }
        },
        {
            "doubleSided" : true,
            "name" : "Material__141.001",
            "pbrMetallicRoughness" : {
                "baseColorTexture" : {
                    "index" : 1
                },
                "metallicFactor" : 0,
                "roughnessFactor" : 0.5
            }
        },
        {
            "doubleSided" : true,
            "name" : "Material__142.001",
            "pbrMetallicRoughness" : {
                "baseColorTexture" : {
                    "index" : 2
                },
                "metallicFactor" : 0,
                "roughnessFactor" : 0.5
            }
        },
        {
            "doubleSided" : true,
            "name" : "Material__143.001",
            "pbrMetallicRoughness" : {
                "baseColorTexture" : {
                    "index" : 3
                },
                "metallicFactor" : 0,
                "roughnessFactor" : 0.5
            }
        }
    ],
    "meshes" : [
        {
            "name" : "GyaradosM.001",
            "primitives" : [
                {
                    "attributes" : {
                        "POSITION" : 0,
                        "NORMAL" : 1,
                        "TEXCOORD_0" : 2
                    },
                    "indices" : 3,
                    "material" : 0
                },
                {
                    "attributes" : {
                        "POSITION" : 4,
                        "NORMAL" : 5,
                        "TEXCOORD_0" : 6
                    },
                    "indices" : 7,
                    "material" : 1
                },
                {
                    "attributes" : {
                        "POSITION" : 8,
                        "NORMAL" : 9,
                        "TEXCOORD_0" : 10
                    },
                    "indices" : 11,
                    "material" : 2
                },
                {
                    "attributes" : {
                        "POSITION" : 12,
                        "NORMAL" : 13,
                        "TEXCOORD_0" : 14
                    },
                    "indices" : 7,
                    "material" : 3
                }
            ]
        }
    ],
    "textures" : [
        {
            "sampler" : 0,
            "source" : 0
        },
        {
            "sampler" : 0,
            "source" : 1
        },
        {
            "sampler" : 0,
            "source" : 2
        },
        {
            "sampler" : 0,
            "source" : 3
        }
    ],
    "images" : [
        {
            "bufferView" : 4,
            "mimeType" : "image/png",
            "name" : "pm0130_00_BodyB1"
        },
        {
            "bufferView" : 9,
            "mimeType" : "image/png",
            "name" : "pm0130_00_Eye1"
        },
        {
            "bufferView" : 14,
            "mimeType" : "image/png",
            "name" : "pm0130_00_BodyA1"
        },
        {
            "bufferView" : 18,
            "mimeType" : "image/png",
            "name" : "pm0130_00_Iris1"
        }
    ],
    "accessors" : [
        {
            "bufferView" : 0,
            "componentType" : 5126,
            "count" : 1340,
            "max" : [
                126.20068359375,
                42.60350036621094,
                55.39107894897461
            ],
            "min" : [
                -145.11672973632812,
                -78.65188598632812,
                -55.390926361083984
            ],
            "type" : "VEC3"
        },
        {
            "bufferView" : 1,
            "componentType" : 5126,
            "count" : 1340,
            "type" : "VEC3"
        },
        {
            "bufferView" : 2,
            "componentType" : 5126,
            "count" : 1340,
            "type" : "VEC2"
        },
        {
            "bufferView" : 3,
            "componentType" : 5123,
            "count" : 5760,
            "type" : "SCALAR"
        },
        {
            "bufferView" : 5,
            "componentType" : 5126,
            "count" : 42,
            "max" : [
                124.71502685546875,
                -10.084651947021484,
                12.924983024597168
            ],
            "min" : [
                115.76152038574219,
                -24.704544067382812,
                -12.924513816833496
            ],
            "type" : "VEC3"
        },
        {
            "bufferView" : 6,
            "componentType" : 5126,
            "count" : 42,
            "type" : "VEC3"
        },
        {
            "bufferView" : 7,
            "componentType" : 5126,
            "count" : 42,
            "type" : "VEC2"
        },
        {
            "bufferView" : 8,
            "componentType" : 5123,
            "count" : 156,
            "type" : "SCALAR"
        },
        {
            "bufferView" : 10,
            "componentType" : 5126,
            "count" : 2807,
            "max" : [
                129.67637634277344,
                26.866436004638672,
                40.17506408691406
            ],
            "min" : [
                -146.05703735351562,
                -82.99188232421875,
                -40.174530029296875
            ],
            "type" : "VEC3"
        },
        {
            "bufferView" : 11,
            "componentType" : 5126,
            "count" : 2807,
            "type" : "VEC3"
        },
        {
            "bufferView" : 12,
            "componentType" : 5126,
            "count" : 2807,
            "type" : "VEC2"
        },
        {
            "bufferView" : 13,
            "componentType" : 5123,
            "count" : 10722,
            "type" : "SCALAR"
        },
        {
            "bufferView" : 15,
            "componentType" : 5126,
            "count" : 42,
            "max" : [
                124.74806213378906,
                -10.113475799560547,
                12.9833345413208
            ],
            "min" : [
                115.84271240234375,
                -24.69049072265625,
                -12.982863426208496
            ],
            "type" : "VEC3"
        },
        {
            "bufferView" : 16,
            "componentType" : 5126,
            "count" : 42,
            "type" : "VEC3"
        },
        {
            "bufferView" : 17,
            "componentType" : 5126,
            "count" : 42,
            "type" : "VEC2"
        }
    ],
    "bufferViews" : [
        {
            "buffer" : 0,
            "byteLength" : 16080,
            "byteOffset" : 0
        },
        {
            "buffer" : 0,
            "byteLength" : 16080,
            "byteOffset" : 16080
        },
        {
            "buffer" : 0,
            "byteLength" : 10720,
            "byteOffset" : 32160
        },
        {
            "buffer" : 0,
            "byteLength" : 11520,
            "byteOffset" : 42880
        },
        {
            "buffer" : 0,
            "byteLength" : 49888,
            "byteOffset" : 54400
        },
        {
            "buffer" : 0,
            "byteLength" : 504,
            "byteOffset" : 104288
        },
        {
            "buffer" : 0,
            "byteLength" : 504,
            "byteOffset" : 104792
        },
        {
            "buffer" : 0,
            "byteLength" : 336,
            "byteOffset" : 105296
        },
        {
            "buffer" : 0,
            "byteLength" : 312,
            "byteOffset" : 105632
        },
        {
            "buffer" : 0,
            "byteLength" : 29388,
            "byteOffset" : 105944
        },
        {
            "buffer" : 0,
            "byteLength" : 33684,
            "byteOffset" : 135332
        },
        {
            "buffer" : 0,
            "byteLength" : 33684,
            "byteOffset" : 169016
        },
        {
            "buffer" : 0,
            "byteLength" : 22456,
            "byteOffset" : 202700
        },
        {
            "buffer" : 0,
            "byteLength" : 21444,
            "byteOffset" : 225156
        },
        {
            "buffer" : 0,
            "byteLength" : 66828,
            "byteOffset" : 246600
        },
        {
            "buffer" : 0,
            "byteLength" : 504,
            "byteOffset" : 313428
        },
        {
            "buffer" : 0,
            "byteLength" : 504,
            "byteOffset" : 313932
        },
        {
            "buffer" : 0,
            "byteLength" : 336,
            "byteOffset" : 314436
        },
        {
            "buffer" : 0,
            "byteLength" : 2100,
            "byteOffset" : 314772
        }
    ],
    "samplers" : [
        {
            "magFilter" : 9729,
            "minFilter" : 9987
        }
    ],
    "buffers" : [
        {
            "byteLength" : 316872,
            "uri" : "data:application/octet-stream;base64,"
        }
    ]
}
