{
    "asset" : {
        "generator" : "Khronos glTF Blender I/O v1.7.33",
        "version" : "2.0"
    },
    "scene" : 0,
    "scenes" : [
        {
            "name" : "Scene",
            "nodes" : [
                0,
                1,
                2
            ]
        }
    ],
    "nodes" : [
        {
            "name" : "Light.001",
            "rotation" : [
                0.16907575726509094,
                0.7558803558349609,
                -0.27217137813568115,
                0.570947527885437
            ],
            "translation" : [
                4.076245307922363,
                5.903861999511719,
                -1.0054539442062378
            ]
        },
        {
            "name" : "Camera.001",
            "rotation" : [
                0.483536034822464,
                0.33687159419059753,
                -0.20870360732078552,
                0.7804827094078064
            ],
            "translation" : [
                7.358891487121582,
                4.958309173583984,
                6.925790786743164
            ]
        },
        {
            "mesh" : 0,
            "name" : "Jigglypuff",
            "rotation" : [
                0.7071068286895752,
                0,
                0,
                0.7071068286895752
            ],
            "scale" : [
                0.020000003278255463,
                0.020000003278255463,
                0.020000003278255463
            ]
        }
    ],
    "materials" : [
        {
            "doubleSided" : true,
            "name" : "Mouth",
            "pbrMetallicRoughness" : {
                "baseColorTexture" : {
                    "index" : 0
                },
                "metallicFactor" : 0,
                "roughnessFactor" : 0.5
            }
        },
        {
            "doubleSided" : true,
            "name" : "LEye",
            "pbrMetallicRoughness" : {
                "baseColorTexture" : {
                    "index" : 1
                },
                "metallicFactor" : 0,
                "roughnessFactor" : 0.5
            }
        },
        {
            "doubleSided" : true,
            "name" : "LIris",
            "pbrMetallicRoughness" : {
                "baseColorTexture" : {
                    "index" : 2
                },
                "metallicFactor" : 0,
                "roughnessFactor" : 0.5
            }
        },
        {
            "doubleSided" : true,
            "name" : "Body",
            "pbrMetallicRoughness" : {
                "baseColorTexture" : {
                    "index" : 3
                },
                "metallicFactor" : 0,
                "roughnessFactor" : 0.5
            }
        }
    ],
    "meshes" : [
        {
            "name" : "Jigglypuff",
            "primitives" : [
                {
                    "attributes" : {
                        "POSITION" : 0,
                        "NORMAL" : 1,
                        "TEXCOORD_0" : 2,
                        "COLOR_0" : 3
                    },
                    "indices" : 4,
                    "material" : 0
                },
                {
                    "attributes" : {
                        "POSITION" : 5,
                        "NORMAL" : 6,
                        "TEXCOORD_0" : 7,
                        "COLOR_0" : 8
                    },
                    "indices" : 9,
                    "material" : 1
                },
                {
                    "attributes" : {
                        "POSITION" : 10,
                        "NORMAL" : 11,
                        "TEXCOORD_0" : 12,
                        "COLOR_0" : 13
                    },
                    "indices" : 9,
                    "material" : 2
                },
                {
                    "attributes" : {
                        "POSITION" : 14,
                        "NORMAL" : 15,
                        "TEXCOORD_0" : 16,
                        "COLOR_0" : 17
                    },
                    "indices" : 18,
                    "material" : 3
                }
            ]
        }
    ],
    "textures" : [
        {
            "sampler" : 0,
            "source" : 0
        },
        {
            "sampler" : 0,
            "source" : 1
        },
        {
            "sampler" : 0,
            "source" : 2
        },
        {
            "sampler" : 0,
            "source" : 3
        }
    ],
    "images" : [
        {
            "bufferView" : 5,
            "mimeType" : "image/png",
            "name" : "pm0039_00_Mouth1"
        },
        {
            "bufferView" : 11,
            "mimeType" : "image/png",
            "name" : "pm0039_00_Eye1"
        },
        {
            "bufferView" : 16,
            "mimeType" : "image/png",
            "name" : "pm0039_00_Iris1"
        },
        {
            "bufferView" : 22,
            "mimeType" : "image/png",
            "name" : "pm0039_00_Body1"
        }
    ],
    "accessors" : [
        {
            "bufferView" : 0,
            "componentType" : 5126,
            "count" : 15,
            "max" : [
                7.476531982421875,
                26.386594772338867,
                -18.464200973510742
            ],
            "min" : [
                -7.476531982421875,
                24.483495712280273,
                -25.375505447387695
            ],
            "type" : "VEC3"
        },
        {
            "bufferView" : 1,
            "componentType" : 5126,
            "count" : 15,
            "type" : "VEC3"
        },
        {
            "bufferView" : 2,
            "componentType" : 5126,
            "count" : 15,
            "type" : "VEC2"
        },
        {
            "bufferView" : 3,
            "componentType" : 5123,
            "count" : 15,
            "normalized" : true,
            "type" : "VEC4"
        },
        {
            "bufferView" : 4,
            "componentType" : 5123,
            "count" : 48,
            "type" : "SCALAR"
        },
        {
            "bufferView" : 6,
            "componentType" : 5126,
            "count" : 192,
            "max" : [
                18.758207321166992,
                25.50139617919922,
                -21.868101119995117
            ],
            "min" : [
                -18.758203506469727,
                18.266389846801758,
                -36.82550811767578
            ],
            "type" : "VEC3"
        },
        {
            "bufferView" : 7,
            "componentType" : 5126,
            "count" : 192,
            "type" : "VEC3"
        },
        {
            "bufferView" : 8,
            "componentType" : 5126,
            "count" : 192,
            "type" : "VEC2"
        },
        {
            "bufferView" : 9,
            "componentType" : 5123,
            "count" : 192,
            "normalized" : true,
            "type" : "VEC4"
        },
        {
            "bufferView" : 10,
            "componentType" : 5123,
            "count" : 1020,
            "type" : "SCALAR"
        },
        {
            "bufferView" : 12,
            "componentType" : 5126,
            "count" : 192,
            "max" : [
                18.843706130981445,
                25.601394653320312,
                -21.823301315307617
            ],
            "min" : [
                -18.84370231628418,
                18.317689895629883,
                -36.88680648803711
            ],
            "type" : "VEC3"
        },
        {
            "bufferView" : 13,
            "componentType" : 5126,
            "count" : 192,
            "type" : "VEC3"
        },
        {
            "bufferView" : 14,
            "componentType" : 5126,
            "count" : 192,
            "type" : "VEC2"
        },
        {
            "bufferView" : 15,
            "componentType" : 5123,
            "count" : 192,
            "normalized" : true,
            "type" : "VEC4"
        },
        {
            "bufferView" : 17,
            "componentType" : 5126,
            "count" : 2351,
            "max" : [
                29.780508041381836,
                29.95169448852539,
                -0.8302339315414429
            ],
            "min" : [
                -29.780506134033203,
                -26.86791229248047,
                -56.09010696411133
            ],
            "type" : "VEC3"
        },
        {
            "bufferView" : 18,
            "componentType" : 5126,
            "count" : 2351,
            "type" : "VEC3"
        },
        {
            "bufferView" : 19,
            "componentType" : 5126,
            "count" : 2351,
            "type" : "VEC2"
        },
        {
            "bufferView" : 20,
            "componentType" : 5123,
            "count" : 2351,
            "normalized" : true,
            "type" : "VEC4"
        },
        {
            "bufferView" : 21,
            "componentType" : 5123,
            "count" : 10686,
            "type" : "SCALAR"
        }
    ],
    "bufferViews" : [
        {
            "buffer" : 0,
            "byteLength" : 180,
            "byteOffset" : 0
        },
        {
            "buffer" : 0,
            "byteLength" : 180,
            "byteOffset" : 180
        },
        {
            "buffer" : 0,
            "byteLength" : 120,
            "byteOffset" : 360
        },
        {
            "buffer" : 0,
            "byteLength" : 120,
            "byteOffset" : 480
        },
        {
            "buffer" : 0,
            "byteLength" : 96,
            "byteOffset" : 600
        },
        {
            "buffer" : 0,
            "byteLength" : 13758,
            "byteOffset" : 696
        },
        {
            "buffer" : 0,
            "byteLength" : 2304,
            "byteOffset" : 14456
        },
        {
            "buffer" : 0,
            "byteLength" : 2304,
            "byteOffset" : 16760
        },
        {
            "buffer" : 0,
            "byteLength" : 1536,
            "byteOffset" : 19064
        },
        {
            "buffer" : 0,
            "byteLength" : 1536,
            "byteOffset" : 20600
        },
        {
            "buffer" : 0,
            "byteLength" : 2040,
            "byteOffset" : 22136
        },
        {
            "buffer" : 0,
            "byteLength" : 38687,
            "byteOffset" : 24176
        },
        {
            "buffer" : 0,
            "byteLength" : 2304,
            "byteOffset" : 62864
        },
        {
            "buffer" : 0,
            "byteLength" : 2304,
            "byteOffset" : 65168
        },
        {
            "buffer" : 0,
            "byteLength" : 1536,
            "byteOffset" : 67472
        },
        {
            "buffer" : 0,
            "byteLength" : 1536,
            "byteOffset" : 69008
        },
        {
            "buffer" : 0,
            "byteLength" : 6886,
            "byteOffset" : 70544
        },
        {
            "buffer" : 0,
            "byteLength" : 28212,
            "byteOffset" : 77432
        },
        {
            "buffer" : 0,
            "byteLength" : 28212,
            "byteOffset" : 105644
        },
        {
            "buffer" : 0,
            "byteLength" : 18808,
            "byteOffset" : 133856
        },
        {
            "buffer" : 0,
            "byteLength" : 18808,
            "byteOffset" : 152664
        },
        {
            "buffer" : 0,
            "byteLength" : 21372,
            "byteOffset" : 171472
        },
        {
            "buffer" : 0,
            "byteLength" : 11318,
            "byteOffset" : 192844
        }
    ],
    "samplers" : [
        {
            "magFilter" : 9729,
            "minFilter" : 9987
        }
    ],
    "buffers" : [
        {
            "byteLength" : 204164,
            "uri" : "data:application/octet-stream;base64,"
        }
    ]
}
