{
    "asset" : {
        "generator" : "Khronos glTF Blender I/O v1.7.33",
        "version" : "2.0"
    },
    "scene" : 0,
    "scenes" : [
        {
            "name" : "Scene",
            "nodes" : [
                0,
                1,
                2
            ]
        }
    ],
    "nodes" : [
        {
            "name" : "Light.001",
            "rotation" : [
                0.16907575726509094,
                0.7558803558349609,
                -0.27217137813568115,
                0.570947527885437
            ],
            "translation" : [
                4.076245307922363,
                5.903861999511719,
                -1.0054539442062378
            ]
        },
        {
            "name" : "Camera.001",
            "rotation" : [
                0.483536034822464,
                0.33687159419059753,
                -0.20870360732078552,
                0.7804827094078064
            ],
            "translation" : [
                7.358891487121582,
                4.958309173583984,
                6.925790786743164
            ]
        },
        {
            "mesh" : 0,
            "name" : "Meowth",
            "rotation" : [
                0.5,
                0.5,
                0.5,
                0.5
            ],
            "scale" : [
                0.020000003278255463,
                0.020000003278255463,
                0.020000003278255463
            ]
        }
    ],
    "materials" : [
        {
            "doubleSided" : true,
            "name" : "REye",
            "pbrMetallicRoughness" : {
                "baseColorTexture" : {
                    "index" : 0
                },
                "metallicFactor" : 0,
                "roughnessFactor" : 0.5
            }
        },
        {
            "doubleSided" : true,
            "name" : "Body00",
            "pbrMetallicRoughness" : {
                "baseColorTexture" : {
                    "index" : 1
                },
                "metallicFactor" : 0,
                "roughnessFactor" : 0.5
            }
        },
        {
            "doubleSided" : true,
            "name" : "RIris",
            "pbrMetallicRoughness" : {
                "baseColorTexture" : {
                    "index" : 2
                },
                "metallicFactor" : 0,
                "roughnessFactor" : 0.5
            }
        }
    ],
    "meshes" : [
        {
            "name" : "Meowth",
            "primitives" : [
                {
                    "attributes" : {
                        "POSITION" : 0,
                        "NORMAL" : 1,
                        "TEXCOORD_0" : 2,
                        "COLOR_0" : 3
                    },
                    "indices" : 4,
                    "material" : 0
                },
                {
                    "attributes" : {
                        "POSITION" : 5,
                        "NORMAL" : 6,
                        "TEXCOORD_0" : 7,
                        "COLOR_0" : 8
                    },
                    "indices" : 9,
                    "material" : 1
                },
                {
                    "attributes" : {
                        "POSITION" : 10,
                        "NORMAL" : 11,
                        "TEXCOORD_0" : 12,
                        "COLOR_0" : 13
                    },
                    "indices" : 14,
                    "material" : 2
                }
            ]
        }
    ],
    "textures" : [
        {
            "sampler" : 0,
            "source" : 0
        },
        {
            "sampler" : 0,
            "source" : 1
        },
        {
            "sampler" : 0,
            "source" : 2
        }
    ],
    "images" : [
        {
            "bufferView" : 5,
            "mimeType" : "image/png",
            "name" : "pm0052_00_Eye1"
        },
        {
            "bufferView" : 11,
            "mimeType" : "image/png",
            "name" : "pm0052_00_Body1"
        },
        {
            "bufferView" : 17,
            "mimeType" : "image/png",
            "name" : "pm0052_00_Iris1"
        }
    ],
    "accessors" : [
        {
            "bufferView" : 0,
            "componentType" : 5126,
            "count" : 118,
            "max" : [
                57.99320983886719,
                21.03460693359375,
                20.2979793548584
            ],
            "min" : [
                40.062137603759766,
                6.442723274230957,
                -20.297624588012695
            ],
            "type" : "VEC3"
        },
        {
            "bufferView" : 1,
            "componentType" : 5126,
            "count" : 118,
            "type" : "VEC3"
        },
        {
            "bufferView" : 2,
            "componentType" : 5126,
            "count" : 118,
            "type" : "VEC2"
        },
        {
            "bufferView" : 3,
            "componentType" : 5123,
            "count" : 118,
            "normalized" : true,
            "type" : "VEC4"
        },
        {
            "bufferView" : 4,
            "componentType" : 5123,
            "count" : 576,
            "type" : "SCALAR"
        },
        {
            "bufferView" : 6,
            "componentType" : 5126,
            "count" : 3530,
            "max" : [
                76.14745330810547,
                23.6726016998291,
                49.90169143676758
            ],
            "min" : [
                -12.131397247314453,
                -43.31679153442383,
                -49.90152359008789
            ],
            "type" : "VEC3"
        },
        {
            "bufferView" : 7,
            "componentType" : 5126,
            "count" : 3530,
            "type" : "VEC3"
        },
        {
            "bufferView" : 8,
            "componentType" : 5126,
            "count" : 3530,
            "type" : "VEC2"
        },
        {
            "bufferView" : 9,
            "componentType" : 5123,
            "count" : 3530,
            "normalized" : true,
            "type" : "VEC4"
        },
        {
            "bufferView" : 10,
            "componentType" : 5123,
            "count" : 16290,
            "type" : "SCALAR"
        },
        {
            "bufferView" : 12,
            "componentType" : 5126,
            "count" : 118,
            "max" : [
                58.314605712890625,
                21.358606338500977,
                20.58698081970215
            ],
            "min" : [
                40.077335357666016,
                6.589921474456787,
                -20.586626052856445
            ],
            "type" : "VEC3"
        },
        {
            "bufferView" : 13,
            "componentType" : 5126,
            "count" : 118,
            "type" : "VEC3"
        },
        {
            "bufferView" : 14,
            "componentType" : 5126,
            "count" : 118,
            "type" : "VEC2"
        },
        {
            "bufferView" : 15,
            "componentType" : 5123,
            "count" : 118,
            "normalized" : true,
            "type" : "VEC4"
        },
        {
            "bufferView" : 16,
            "componentType" : 5123,
            "count" : 576,
            "type" : "SCALAR"
        }
    ],
    "bufferViews" : [
        {
            "buffer" : 0,
            "byteLength" : 1416,
            "byteOffset" : 0
        },
        {
            "buffer" : 0,
            "byteLength" : 1416,
            "byteOffset" : 1416
        },
        {
            "buffer" : 0,
            "byteLength" : 944,
            "byteOffset" : 2832
        },
        {
            "buffer" : 0,
            "byteLength" : 944,
            "byteOffset" : 3776
        },
        {
            "buffer" : 0,
            "byteLength" : 1152,
            "byteOffset" : 4720
        },
        {
            "buffer" : 0,
            "byteLength" : 17655,
            "byteOffset" : 5872
        },
        {
            "buffer" : 0,
            "byteLength" : 42360,
            "byteOffset" : 23528
        },
        {
            "buffer" : 0,
            "byteLength" : 42360,
            "byteOffset" : 65888
        },
        {
            "buffer" : 0,
            "byteLength" : 28240,
            "byteOffset" : 108248
        },
        {
            "buffer" : 0,
            "byteLength" : 28240,
            "byteOffset" : 136488
        },
        {
            "buffer" : 0,
            "byteLength" : 32580,
            "byteOffset" : 164728
        },
        {
            "buffer" : 0,
            "byteLength" : 37199,
            "byteOffset" : 197308
        },
        {
            "buffer" : 0,
            "byteLength" : 1416,
            "byteOffset" : 234508
        },
        {
            "buffer" : 0,
            "byteLength" : 1416,
            "byteOffset" : 235924
        },
        {
            "buffer" : 0,
            "byteLength" : 944,
            "byteOffset" : 237340
        },
        {
            "buffer" : 0,
            "byteLength" : 944,
            "byteOffset" : 238284
        },
        {
            "buffer" : 0,
            "byteLength" : 1152,
            "byteOffset" : 239228
        },
        {
            "buffer" : 0,
            "byteLength" : 1122,
            "byteOffset" : 240380
        }
    ],
    "samplers" : [
        {
            "magFilter" : 9729,
            "minFilter" : 9987
        }
    ],
    "buffers" : [
        {
            "byteLength" : 241504,
            "uri" : "data:application/octet-stream;base64,"
        }
    ]
}
