{
    "asset" : {
        "generator" : "Khronos glTF Blender I/O v1.7.33",
        "version" : "2.0"
    },
    "scene" : 0,
    "scenes" : [
        {
            "name" : "Scene",
            "nodes" : [
                0,
                1,
                2
            ]
        }
    ],
    "nodes" : [
        {
            "name" : "Light.001",
            "rotation" : [
                0.16907575726509094,
                0.7558803558349609,
                -0.27217137813568115,
                0.570947527885437
            ],
            "translation" : [
                4.076245307922363,
                5.903861999511719,
                -1.0054539442062378
            ]
        },
        {
            "name" : "Camera.001",
            "rotation" : [
                0.483536034822464,
                0.33687159419059753,
                -0.20870360732078552,
                0.7804827094078064
            ],
            "translation" : [
                7.358891487121582,
                4.958309173583984,
                6.925790786743164
            ]
        },
        {
            "mesh" : 0,
            "name" : "PikachuM",
            "scale" : [
                0.020000003278255463,
                0.020000003278255463,
                0.020000003278255463
            ]
        }
    ],
    "materials" : [
        {
            "doubleSided" : true,
            "name" : "Material__160",
            "pbrMetallicRoughness" : {
                "baseColorTexture" : {
                    "index" : 0
                },
                "metallicFactor" : 0,
                "roughnessFactor" : 0.5
            }
        },
        {
            "doubleSided" : true,
            "name" : "Material__161",
            "pbrMetallicRoughness" : {
                "baseColorTexture" : {
                    "index" : 1
                },
                "metallicFactor" : 0,
                "roughnessFactor" : 0.5
            }
        },
        {
            "doubleSided" : true,
            "name" : "Material__162",
            "pbrMetallicRoughness" : {
                "baseColorTexture" : {
                    "index" : 2
                },
                "metallicFactor" : 0,
                "roughnessFactor" : 0.5
            }
        },
        {
            "doubleSided" : true,
            "name" : "Material__163",
            "pbrMetallicRoughness" : {
                "baseColorTexture" : {
                    "index" : 3
                },
                "metallicFactor" : 0,
                "roughnessFactor" : 0.5
            }
        }
    ],
    "meshes" : [
        {
            "name" : "PikachuM",
            "primitives" : [
                {
                    "attributes" : {
                        "POSITION" : 0,
                        "NORMAL" : 1,
                        "TEXCOORD_0" : 2
                    },
                    "indices" : 3,
                    "material" : 0
                },
                {
                    "attributes" : {
                        "POSITION" : 4,
                        "NORMAL" : 5,
                        "TEXCOORD_0" : 6
                    },
                    "indices" : 7,
                    "material" : 1
                },
                {
                    "attributes" : {
                        "POSITION" : 8,
                        "NORMAL" : 9,
                        "TEXCOORD_0" : 10
                    },
                    "indices" : 11,
                    "material" : 2
                },
                {
                    "attributes" : {
                        "POSITION" : 12,
                        "NORMAL" : 13,
                        "TEXCOORD_0" : 14
                    },
                    "indices" : 15,
                    "material" : 3
                }
            ]
        }
    ],
    "textures" : [
        {
            "sampler" : 0,
            "source" : 0
        },
        {
            "sampler" : 0,
            "source" : 1
        },
        {
            "sampler" : 0,
            "source" : 2
        },
        {
            "sampler" : 0,
            "source" : 3
        }
    ],
    "images" : [
        {
            "bufferView" : 4,
            "mimeType" : "image/png",
            "name" : "pm0025_00_BodyA1"
        },
        {
            "bufferView" : 9,
            "mimeType" : "image/png",
            "name" : "pm0025_00_BodyB1"
        },
        {
            "bufferView" : 14,
            "mimeType" : "image/png",
            "name" : "pm0025_00_Mouth1"
        },
        {
            "bufferView" : 19,
            "mimeType" : "image/png",
            "name" : "pm0025_00_Eye1"
        }
    ],
    "accessors" : [
        {
            "bufferView" : 0,
            "componentType" : 5126,
            "count" : 2568,
            "max" : [
                17.0452938079834,
                51.32352828979492,
                16.36220932006836
            ],
            "min" : [
                -17.045316696166992,
                -0.014681401662528515,
                -30.285802841186523
            ],
            "type" : "VEC3"
        },
        {
            "bufferView" : 1,
            "componentType" : 5126,
            "count" : 2568,
            "type" : "VEC3"
        },
        {
            "bufferView" : 2,
            "componentType" : 5126,
            "count" : 2568,
            "type" : "VEC2"
        },
        {
            "bufferView" : 3,
            "componentType" : 5123,
            "count" : 12582,
            "type" : "SCALAR"
        },
        {
            "bufferView" : 5,
            "componentType" : 5126,
            "count" : 88,
            "max" : [
                10.081500053405762,
                36.51872253417969,
                12.145903587341309
            ],
            "min" : [
                -10.081511497497559,
                29.907712936401367,
                4.784548759460449
            ],
            "type" : "VEC3"
        },
        {
            "bufferView" : 6,
            "componentType" : 5126,
            "count" : 88,
            "type" : "VEC3"
        },
        {
            "bufferView" : 7,
            "componentType" : 5126,
            "count" : 88,
            "type" : "VEC2"
        },
        {
            "bufferView" : 8,
            "componentType" : 5123,
            "count" : 390,
            "type" : "SCALAR"
        },
        {
            "bufferView" : 10,
            "componentType" : 5126,
            "count" : 72,
            "max" : [
                5.833207130432129,
                37.85192108154297,
                14.441203117370605
            ],
            "min" : [
                -5.833218574523926,
                29.85222053527832,
                11.147902488708496
            ],
            "type" : "VEC3"
        },
        {
            "bufferView" : 11,
            "componentType" : 5126,
            "count" : 72,
            "type" : "VEC3"
        },
        {
            "bufferView" : 12,
            "componentType" : 5126,
            "count" : 72,
            "type" : "VEC2"
        },
        {
            "bufferView" : 13,
            "componentType" : 5123,
            "count" : 336,
            "type" : "SCALAR"
        },
        {
            "bufferView" : 15,
            "componentType" : 5126,
            "count" : 50,
            "max" : [
                7.729867935180664,
                41.566524505615234,
                12.264004707336426
            ],
            "min" : [
                -7.7298808097839355,
                36.14571762084961,
                6.803329944610596
            ],
            "type" : "VEC3"
        },
        {
            "bufferView" : 16,
            "componentType" : 5126,
            "count" : 50,
            "type" : "VEC3"
        },
        {
            "bufferView" : 17,
            "componentType" : 5126,
            "count" : 50,
            "type" : "VEC2"
        },
        {
            "bufferView" : 18,
            "componentType" : 5123,
            "count" : 192,
            "type" : "SCALAR"
        }
    ],
    "bufferViews" : [
        {
            "buffer" : 0,
            "byteLength" : 30816,
            "byteOffset" : 0
        },
        {
            "buffer" : 0,
            "byteLength" : 30816,
            "byteOffset" : 30816
        },
        {
            "buffer" : 0,
            "byteLength" : 20544,
            "byteOffset" : 61632
        },
        {
            "buffer" : 0,
            "byteLength" : 25164,
            "byteOffset" : 82176
        },
        {
            "buffer" : 0,
            "byteLength" : 21288,
            "byteOffset" : 107340
        },
        {
            "buffer" : 0,
            "byteLength" : 1056,
            "byteOffset" : 128628
        },
        {
            "buffer" : 0,
            "byteLength" : 1056,
            "byteOffset" : 129684
        },
        {
            "buffer" : 0,
            "byteLength" : 704,
            "byteOffset" : 130740
        },
        {
            "buffer" : 0,
            "byteLength" : 780,
            "byteOffset" : 131444
        },
        {
            "buffer" : 0,
            "byteLength" : 15290,
            "byteOffset" : 132224
        },
        {
            "buffer" : 0,
            "byteLength" : 864,
            "byteOffset" : 147516
        },
        {
            "buffer" : 0,
            "byteLength" : 864,
            "byteOffset" : 148380
        },
        {
            "buffer" : 0,
            "byteLength" : 576,
            "byteOffset" : 149244
        },
        {
            "buffer" : 0,
            "byteLength" : 672,
            "byteOffset" : 149820
        },
        {
            "buffer" : 0,
            "byteLength" : 12516,
            "byteOffset" : 150492
        },
        {
            "buffer" : 0,
            "byteLength" : 600,
            "byteOffset" : 163008
        },
        {
            "buffer" : 0,
            "byteLength" : 600,
            "byteOffset" : 163608
        },
        {
            "buffer" : 0,
            "byteLength" : 400,
            "byteOffset" : 164208
        },
        {
            "buffer" : 0,
            "byteLength" : 384,
            "byteOffset" : 164608
        },
        {
            "buffer" : 0,
            "byteLength" : 29029,
            "byteOffset" : 164992
        }
    ],
    "samplers" : [
        {
            "magFilter" : 9729,
            "minFilter" : 9987
        }
    ],
    "buffers" : [
        {
            "byteLength" : 194024,
            "uri" : "data:application/octet-stream;base64,"
        }
    ]
}
