{
    "asset" : {
        "generator" : "Khronos glTF Blender I/O v1.7.33",
        "version" : "2.0"
    },
    "scene" : 0,
    "scenes" : [
        {
            "name" : "Scene",
            "nodes" : [
                0
            ]
        }
    ],
    "nodes" : [
        {
            "mesh" : 0,
            "name" : "Squirtle",
            "rotation" : [
                0.7071068286895752,
                0,
                0,
                0.7071068286895752
            ],
            "scale" : [
                0.020000003278255463,
                0.020000003278255463,
                0.020000003278255463
            ]
        }
    ],
    "materials" : [
        {
            "doubleSided" : true,
            "name" : "Material #60.001",
            "pbrMetallicRoughness" : {
                "baseColorTexture" : {
                    "index" : 0
                },
                "metallicFactor" : 0,
                "roughnessFactor" : 0.858578622341156
            }
        },
        {
            "doubleSided" : true,
            "name" : "Material #61.001",
            "pbrMetallicRoughness" : {
                "baseColorTexture" : {
                    "index" : 1
                },
                "metallicFactor" : 0,
                "roughnessFactor" : 0.858578622341156
            }
        }
    ],
    "meshes" : [
        {
            "name" : "Squirtle",
            "primitives" : [
                {
                    "attributes" : {
                        "POSITION" : 0,
                        "NORMAL" : 1,
                        "TEXCOORD_0" : 2
                    },
                    "indices" : 3,
                    "material" : 0
                },
                {
                    "attributes" : {
                        "POSITION" : 4,
                        "NORMAL" : 5,
                        "TEXCOORD_0" : 6
                    },
                    "indices" : 7,
                    "material" : 1
                }
            ]
        }
    ],
    "textures" : [
        {
            "sampler" : 0,
            "source" : 0
        },
        {
            "sampler" : 0,
            "source" : 1
        }
    ],
    "images" : [
        {
            "bufferView" : 4,
            "mimeType" : "image/png",
            "name" : "pm0007_00_Body1"
        },
        {
            "bufferView" : 9,
            "mimeType" : "image/png",
            "name" : "pm0007_00_Eye1"
        }
    ],
    "accessors" : [
        {
            "bufferView" : 0,
            "componentType" : 5126,
            "count" : 2887,
            "max" : [
                18.568008422851562,
                21.677000045776367,
                7.58671876610606e-06
            ],
            "min" : [
                -18.56800079345703,
                -25.80919647216797,
                -43.93509292602539
            ],
            "type" : "VEC3"
        },
        {
            "bufferView" : 1,
            "componentType" : 5126,
            "count" : 2887,
            "type" : "VEC3"
        },
        {
            "bufferView" : 2,
            "componentType" : 5126,
            "count" : 2887,
            "type" : "VEC2"
        },
        {
            "bufferView" : 3,
            "componentType" : 5123,
            "count" : 13692,
            "type" : "SCALAR"
        },
        {
            "bufferView" : 5,
            "componentType" : 5126,
            "count" : 120,
            "max" : [
                9.0211181640625,
                20.523401260375977,
                -29.805694580078125
            ],
            "min" : [
                -9.021121978759766,
                15.75570011138916,
                -40.061187744140625
            ],
            "type" : "VEC3"
        },
        {
            "bufferView" : 6,
            "componentType" : 5126,
            "count" : 120,
            "type" : "VEC3"
        },
        {
            "bufferView" : 7,
            "componentType" : 5126,
            "count" : 120,
            "type" : "VEC2"
        },
        {
            "bufferView" : 8,
            "componentType" : 5123,
            "count" : 552,
            "type" : "SCALAR"
        }
    ],
    "bufferViews" : [
        {
            "buffer" : 0,
            "byteLength" : 34644,
            "byteOffset" : 0
        },
        {
            "buffer" : 0,
            "byteLength" : 34644,
            "byteOffset" : 34644
        },
        {
            "buffer" : 0,
            "byteLength" : 23096,
            "byteOffset" : 69288
        },
        {
            "buffer" : 0,
            "byteLength" : 27384,
            "byteOffset" : 92384
        },
        {
            "buffer" : 0,
            "byteLength" : 70058,
            "byteOffset" : 119768
        },
        {
            "buffer" : 0,
            "byteLength" : 1440,
            "byteOffset" : 189828
        },
        {
            "buffer" : 0,
            "byteLength" : 1440,
            "byteOffset" : 191268
        },
        {
            "buffer" : 0,
            "byteLength" : 960,
            "byteOffset" : 192708
        },
        {
            "buffer" : 0,
            "byteLength" : 1104,
            "byteOffset" : 193668
        },
        {
            "buffer" : 0,
            "byteLength" : 32851,
            "byteOffset" : 194772
        }
    ],
    "samplers" : [
        {
            "magFilter" : 9729,
            "minFilter" : 9987
        }
    ],
    "buffers" : [
        {
            "byteLength" : 227624,
            "uri" : "data:application/octet-stream;base64,"
        }
    ]
}
