{
    "asset" : {
        "generator" : "Khronos glTF Blender I/O v1.3.48",
        "version" : "2.0"
    },
    "scene" : 0,
    "scenes" : [
        {
            "name" : "Scene",
            "nodes" : [
                0,
                1
            ]
        }
    ],
    "nodes" : [
        {
            "mesh" : 0,
            "name" : "sofa_Cube.001",
            "rotation" : [
                0.7071068286895752,
                0,
                0,
                0.7071067094802856
            ]
        },
        {
            "name" : "Point",
            "translation" : [
                2.9908270835876465,
                2.2613844871520996,
                0
            ]
        }
    ],
    "materials" : [
        {
            "doubleSided" : true,
            "emissiveFactor" : [
                0,
                0,
                0
            ],
            "name" : "m_sofa",
            "pbrMetallicRoughness" : {
                "baseColorFactor" : [
                    0.6618630290031433,
                    0.5565159916877747,
                    0.421330988407135,
                    1
                ],
                "metallicFactor" : 0,
                "roughnessFactor" : 0.8999999761581421
            }
        },
        {
            "doubleSided" : true,
            "emissiveFactor" : [
                0,
                0,
                0
            ],
            "name" : "m_sofa_bottom",
            "pbrMetallicRoughness" : {
                "baseColorFactor" : [
                    0.13286300003528595,
                    0.11295799911022186,
                    0.08718899637460709,
                    1
                ],
                "metallicFactor" : 0,
                "roughnessFactor" : 0.5
            }
        },
        {
            "doubleSided" : true,
            "emissiveFactor" : [
                0,
                0,
                0
            ],
            "name" : "Material.013",
            "pbrMetallicRoughness" : {
                "baseColorFactor" : [
                    0.42869099974632263,
                    0.13286800682544708,
                    0.11443500220775604,
                    1
                ],
                "metallicFactor" : 0,
                "roughnessFactor" : 0.5
            }
        },
        {
            "doubleSided" : true,
            "emissiveFactor" : [
                0,
                0,
                0
            ],
            "name" : "Material.014",
            "pbrMetallicRoughness" : {
                "baseColorFactor" : [
                    0.39072200655937195,
                    0.18626800179481506,
                    0.42869099974632263,
                    1
                ],
                "metallicFactor" : 0,
                "roughnessFactor" : 0.5
            }
        },
        {
            "doubleSided" : true,
            "emissiveFactor" : [
                0,
                0,
                0
            ],
            "name" : "Material.015",
            "pbrMetallicRoughness" : {
                "baseColorFactor" : [
                    0.42869099974632263,
                    0.20587800443172455,
                    0.06364700198173523,
                    1
                ],
                "metallicFactor" : 0,
                "roughnessFactor" : 0.5
            }
        }
    ],
    "meshes" : [
        {
            "name" : "sofa_Cube.001",
            "primitives" : [
                {
                    "attributes" : {
                        "POSITION" : 0,
                        "NORMAL" : 1,
                        "TEXCOORD_0" : 2
                    },
                    "indices" : 3,
                    "material" : 0
                },
                {
                    "attributes" : {
                        "POSITION" : 4,
                        "NORMAL" : 5,
                        "TEXCOORD_0" : 6
                    },
                    "indices" : 7,
                    "material" : 1
                },
                {
                    "attributes" : {
                        "POSITION" : 8,
                        "NORMAL" : 9,
                        "TEXCOORD_0" : 10
                    },
                    "indices" : 11,
                    "material" : 2
                },
                {
                    "attributes" : {
                        "POSITION" : 12,
                        "NORMAL" : 13,
                        "TEXCOORD_0" : 14
                    },
                    "indices" : 11,
                    "material" : 3
                },
                {
                    "attributes" : {
                        "POSITION" : 15,
                        "NORMAL" : 16,
                        "TEXCOORD_0" : 17
                    },
                    "indices" : 18,
                    "material" : 4
                }
            ]
        }
    ],
    "accessors" : [
        {
            "bufferView" : 0,
            "componentType" : 5126,
            "count" : 2071,
            "max" : [
                5.000000953674316,
                0,
                0
            ],
            "min" : [
                -1,
                -5.000000953674316,
                -1
            ],
            "type" : "VEC3"
        },
        {
            "bufferView" : 1,
            "componentType" : 5126,
            "count" : 2071,
            "type" : "VEC3"
        },
        {
            "bufferView" : 2,
            "componentType" : 5126,
            "count" : 2071,
            "type" : "VEC2"
        },
        {
            "bufferView" : 3,
            "componentType" : 5123,
            "count" : 11472,
            "type" : "SCALAR"
        },
        {
            "bufferView" : 4,
            "componentType" : 5126,
            "count" : 585,
            "max" : [
                4.80000114440918,
                -0.20000000298023224,
                0.07999999821186066
            ],
            "min" : [
                -0.800000011920929,
                -4.80000114440918,
                0
            ],
            "type" : "VEC3"
        },
        {
            "bufferView" : 5,
            "componentType" : 5126,
            "count" : 585,
            "type" : "VEC3"
        },
        {
            "bufferView" : 6,
            "componentType" : 5126,
            "count" : 585,
            "type" : "VEC2"
        },
        {
            "bufferView" : 7,
            "componentType" : 5123,
            "count" : 3024,
            "type" : "SCALAR"
        },
        {
            "bufferView" : 8,
            "componentType" : 5126,
            "count" : 272,
            "max" : [
                4.707783222198486,
                -3.9738080501556396,
                -0.44809699058532715
            ],
            "min" : [
                -0.33236899971961975,
                -4.741337776184082,
                -1.1835130453109741
            ],
            "type" : "VEC3"
        },
        {
            "bufferView" : 9,
            "componentType" : 5126,
            "count" : 272,
            "type" : "VEC3"
        },
        {
            "bufferView" : 10,
            "componentType" : 5126,
            "count" : 272,
            "type" : "VEC2"
        },
        {
            "bufferView" : 11,
            "componentType" : 5123,
            "count" : 1152,
            "type" : "SCALAR"
        },
        {
            "bufferView" : 12,
            "componentType" : 5126,
            "count" : 272,
            "max" : [
                4.834107875823975,
                -3.225555896759033,
                -0.48598799109458923
            ],
            "min" : [
                -0.6513609886169434,
                -4.307767868041992,
                -1.2996829748153687
            ],
            "type" : "VEC3"
        },
        {
            "bufferView" : 13,
            "componentType" : 5126,
            "count" : 272,
            "type" : "VEC3"
        },
        {
            "bufferView" : 14,
            "componentType" : 5126,
            "count" : 272,
            "type" : "VEC2"
        },
        {
            "bufferView" : 15,
            "componentType" : 5126,
            "count" : 136,
            "max" : [
                0.030827000737190247,
                -2.744438886642456,
                -0.4944300055503845
            ],
            "min" : [
                -0.7384480237960815,
                -3.738213062286377,
                -1.216838002204895
            ],
            "type" : "VEC3"
        },
        {
            "bufferView" : 16,
            "componentType" : 5126,
            "count" : 136,
            "type" : "VEC3"
        },
        {
            "bufferView" : 17,
            "componentType" : 5126,
            "count" : 136,
            "type" : "VEC2"
        },
        {
            "bufferView" : 18,
            "componentType" : 5123,
            "count" : 576,
            "type" : "SCALAR"
        }
    ],
    "bufferViews" : [
        {
            "buffer" : 0,
            "byteLength" : 24852,
            "byteOffset" : 0
        },
        {
            "buffer" : 0,
            "byteLength" : 24852,
            "byteOffset" : 24852
        },
        {
            "buffer" : 0,
            "byteLength" : 16568,
            "byteOffset" : 49704
        },
        {
            "buffer" : 0,
            "byteLength" : 22944,
            "byteOffset" : 66272
        },
        {
            "buffer" : 0,
            "byteLength" : 7020,
            "byteOffset" : 89216
        },
        {
            "buffer" : 0,
            "byteLength" : 7020,
            "byteOffset" : 96236
        },
        {
            "buffer" : 0,
            "byteLength" : 4680,
            "byteOffset" : 103256
        },
        {
            "buffer" : 0,
            "byteLength" : 6048,
            "byteOffset" : 107936
        },
        {
            "buffer" : 0,
            "byteLength" : 3264,
            "byteOffset" : 113984
        },
        {
            "buffer" : 0,
            "byteLength" : 3264,
            "byteOffset" : 117248
        },
        {
            "buffer" : 0,
            "byteLength" : 2176,
            "byteOffset" : 120512
        },
        {
            "buffer" : 0,
            "byteLength" : 2304,
            "byteOffset" : 122688
        },
        {
            "buffer" : 0,
            "byteLength" : 3264,
            "byteOffset" : 124992
        },
        {
            "buffer" : 0,
            "byteLength" : 3264,
            "byteOffset" : 128256
        },
        {
            "buffer" : 0,
            "byteLength" : 2176,
            "byteOffset" : 131520
        },
        {
            "buffer" : 0,
            "byteLength" : 1632,
            "byteOffset" : 133696
        },
        {
            "buffer" : 0,
            "byteLength" : 1632,
            "byteOffset" : 135328
        },
        {
            "buffer" : 0,
            "byteLength" : 1088,
            "byteOffset" : 136960
        },
        {
            "buffer" : 0,
            "byteLength" : 1152,
            "byteOffset" : 138048
        }
    ],
    "buffers" : [
        {
            "byteLength" : 139200,
            "uri" : "data:application/octet-stream;base64,"
        }
    ]
}
