{
    "asset" : {
        "generator" : "Khronos glTF Blender I/O v1.4.40",
        "version" : "2.0"
    },
    "scene" : 0,
    "scenes" : [
        {
            "name" : "Scene",
            "nodes" : [
                2,
                3,
                4
            ]
        }
    ],
    "nodes" : [
        {
            "mesh" : 0,
            "name" : "SOLID"
        },
        {
            "mesh" : 1,
            "name" : "SOLID.001"
        },
        {
            "children" : [
                0,
                1
            ],
            "name" : "DHT11 module",
            "scale" : [
                100,
                100,
                100
            ],
            "translation" : [
                -0.6000000238418579,
                0.10000000149011612,
                0
            ]
        },
        {
            "name" : "Light",
            "rotation" : [
                0.16907575726509094,
                0.7558803558349609,
                -0.27217137813568115,
                0.570947527885437
            ],
            "translation" : [
                4.076245307922363,
                5.903861999511719,
                -1.0054539442062378
            ]
        },
        {
            "name" : "Camera",
            "rotation" : [
                0.483536034822464,
                0.33687159419059753,
                -0.20870360732078552,
                0.7804827094078064
            ],
            "translation" : [
                7.358891487121582,
                4.958309173583984,
                6.925790786743164
            ]
        }
    ],
    "materials" : [
        {
            "doubleSided" : true,
            "name" : "mat_0",
            "pbrMetallicRoughness" : {
                "baseColorFactor" : [
                    0.01850022003054619,
                    0.16513219475746155,
                    0.6795424818992615,
                    1
                ],
                "metallicFactor" : 0,
                "roughnessFactor" : 0.2359415590763092
            }
        },
        {
            "doubleSided" : true,
            "name" : "mat_1",
            "pbrMetallicRoughness" : {
                "metallicFactor" : 0.738095223903656,
                "roughnessFactor" : 0.2121320366859436
            }
        },
        {
            "doubleSided" : true,
            "name" : "mat_2",
            "pbrMetallicRoughness" : {
                "baseColorFactor" : [
                    0,
                    0,
                    0,
                    1
                ],
                "metallicFactor" : 0,
                "roughnessFactor" : 0.2121320366859436
            }
        },
        {
            "doubleSided" : true,
            "name" : "mat_3",
            "pbrMetallicRoughness" : {
                "baseColorFactor" : [
                    0.6038273572921753,
                    0.6239603757858276,
                    0.6038273572921753,
                    1
                ],
                "metallicFactor" : 0.2023809552192688,
                "roughnessFactor" : 0.2121320366859436
            }
        },
        {
            "doubleSided" : true,
            "name" : "mat_4",
            "pbrMetallicRoughness" : {
                "baseColorFactor" : [
                    0.029719935730099678,
                    0.40196940302848816,
                    0.0836826041340828,
                    1
                ],
                "metallicFactor" : 0,
                "roughnessFactor" : 0.5476190447807312
            }
        }
    ],
    "meshes" : [
        {
            "name" : "SOLID",
            "primitives" : [
                {
                    "attributes" : {
                        "POSITION" : 0,
                        "NORMAL" : 1
                    },
                    "indices" : 2,
                    "material" : 0
                }
            ]
        },
        {
            "name" : "SOLID.001",
            "primitives" : [
                {
                    "attributes" : {
                        "POSITION" : 3,
                        "NORMAL" : 4
                    },
                    "indices" : 5,
                    "material" : 0
                },
                {
                    "attributes" : {
                        "POSITION" : 6,
                        "NORMAL" : 7
                    },
                    "indices" : 8,
                    "material" : 1
                },
                {
                    "attributes" : {
                        "POSITION" : 9,
                        "NORMAL" : 10
                    },
                    "indices" : 11,
                    "material" : 2
                },
                {
                    "attributes" : {
                        "POSITION" : 12,
                        "NORMAL" : 13
                    },
                    "indices" : 14,
                    "material" : 3
                },
                {
                    "attributes" : {
                        "POSITION" : 15,
                        "NORMAL" : 16
                    },
                    "indices" : 17,
                    "material" : 4
                }
            ]
        }
    ],
    "accessors" : [
        {
            "bufferView" : 0,
            "componentType" : 5126,
            "count" : 2349,
            "max" : [
                0.012000000104308128,
                0.005499999970197678,
                0
            ],
            "min" : [
                0,
                0.0010000000474974513,
                -0.01549999974668026
            ],
            "type" : "VEC3"
        },
        {
            "bufferView" : 1,
            "componentType" : 5126,
            "count" : 2349,
            "type" : "VEC3"
        },
        {
            "bufferView" : 2,
            "componentType" : 5123,
            "count" : 4890,
            "type" : "SCALAR"
        },
        {
            "bufferView" : 3,
            "componentType" : 5126,
            "count" : 304,
            "max" : [
                0.012000000104308128,
                0.0009899999713525176,
                0.00906684435904026
            ],
            "min" : [
                0,
                -9.999999747378752e-06,
                -0.01549999974668026
            ],
            "type" : "VEC3"
        },
        {
            "bufferView" : 4,
            "componentType" : 5126,
            "count" : 304,
            "type" : "VEC3"
        },
        {
            "bufferView" : 5,
            "componentType" : 5123,
            "count" : 768,
            "type" : "SCALAR"
        },
        {
            "bufferView" : 6,
            "componentType" : 5126,
            "count" : 577,
            "max" : [
                0.008500000461935997,
                0.004000000189989805,
                0.01954939402639866
            ],
            "min" : [
                0.0035000001080334187,
                -0.0010000000474974513,
                0.004066844005137682
            ],
            "type" : "VEC3"
        },
        {
            "bufferView" : 7,
            "componentType" : 5126,
            "count" : 577,
            "type" : "VEC3"
        },
        {
            "bufferView" : 8,
            "componentType" : 5123,
            "count" : 954,
            "type" : "SCALAR"
        },
        {
            "bufferView" : 9,
            "componentType" : 5126,
            "count" : 306,
            "max" : [
                0.008999999612569809,
                0.0020000000949949026,
                0.01334999967366457
            ],
            "min" : [
                0.003000000026077032,
                0,
                0.011350000277161598
            ],
            "type" : "VEC3"
        },
        {
            "bufferView" : 10,
            "componentType" : 5126,
            "count" : 306,
            "type" : "VEC3"
        },
        {
            "bufferView" : 11,
            "componentType" : 5123,
            "count" : 552,
            "type" : "SCALAR"
        },
        {
            "bufferView" : 12,
            "componentType" : 5126,
            "count" : 20,
            "max" : [
                0.010499999858438969,
                0.0029899999499320984,
                -0.001500000013038516
            ],
            "min" : [
                0.001500000013038516,
                0.0009899999713525176,
                -0.014000000432133675
            ],
            "type" : "VEC3"
        },
        {
            "bufferView" : 13,
            "componentType" : 5126,
            "count" : 20,
            "type" : "VEC3"
        },
        {
            "bufferView" : 14,
            "componentType" : 5123,
            "count" : 30,
            "type" : "SCALAR"
        },
        {
            "bufferView" : 15,
            "componentType" : 5126,
            "count" : 246,
            "max" : [
                0.013000000268220901,
                0,
                0.01355000026524067
            ],
            "min" : [
                -0.0010000000474974513,
                -0.0010000000474974513,
                -0.015449999831616879
            ],
            "type" : "VEC3"
        },
        {
            "bufferView" : 16,
            "componentType" : 5126,
            "count" : 246,
            "type" : "VEC3"
        },
        {
            "bufferView" : 17,
            "componentType" : 5123,
            "count" : 456,
            "type" : "SCALAR"
        }
    ],
    "bufferViews" : [
        {
            "buffer" : 0,
            "byteLength" : 28188,
            "byteOffset" : 0
        },
        {
            "buffer" : 0,
            "byteLength" : 28188,
            "byteOffset" : 28188
        },
        {
            "buffer" : 0,
            "byteLength" : 9780,
            "byteOffset" : 56376
        },
        {
            "buffer" : 0,
            "byteLength" : 3648,
            "byteOffset" : 66156
        },
        {
            "buffer" : 0,
            "byteLength" : 3648,
            "byteOffset" : 69804
        },
        {
            "buffer" : 0,
            "byteLength" : 1536,
            "byteOffset" : 73452
        },
        {
            "buffer" : 0,
            "byteLength" : 6924,
            "byteOffset" : 74988
        },
        {
            "buffer" : 0,
            "byteLength" : 6924,
            "byteOffset" : 81912
        },
        {
            "buffer" : 0,
            "byteLength" : 1908,
            "byteOffset" : 88836
        },
        {
            "buffer" : 0,
            "byteLength" : 3672,
            "byteOffset" : 90744
        },
        {
            "buffer" : 0,
            "byteLength" : 3672,
            "byteOffset" : 94416
        },
        {
            "buffer" : 0,
            "byteLength" : 1104,
            "byteOffset" : 98088
        },
        {
            "buffer" : 0,
            "byteLength" : 240,
            "byteOffset" : 99192
        },
        {
            "buffer" : 0,
            "byteLength" : 240,
            "byteOffset" : 99432
        },
        {
            "buffer" : 0,
            "byteLength" : 60,
            "byteOffset" : 99672
        },
        {
            "buffer" : 0,
            "byteLength" : 2952,
            "byteOffset" : 99732
        },
        {
            "buffer" : 0,
            "byteLength" : 2952,
            "byteOffset" : 102684
        },
        {
            "buffer" : 0,
            "byteLength" : 912,
            "byteOffset" : 105636
        }
    ],
    "buffers" : [
        {
            "byteLength" : 106548,
            "uri" : "data:application/octet-stream;base64,"
        }
    ]
}
