{
    "asset" : {
        "generator" : "Khronos glTF Blender I/O v1.7.33",
        "version" : "2.0"
    },
    "scene" : 0,
    "scenes" : [
        {
            "name" : "Scene",
            "nodes" : [
                0,
                1,
                2
            ]
        }
    ],
    "nodes" : [
        {
            "mesh" : 0,
            "name" : "Cylinder.001",
            "rotation" : [
                -0.9250442385673523,
                -0.037781473249197006,
                -0.36076804995536804,
                0.11274818331003189
            ],
            "scale" : [
                1.3012914657592773,
                1.7963467836380005,
                1.3012914657592773
            ],
            "translation" : [
                -0.18305450677871704,
                4.966289520263672,
                -0.02194344997406006
            ]
        },
        {
            "mesh" : 1,
            "name" : "Cylinder.002",
            "rotation" : [
                -0.6808207035064697,
                0.6273894309997559,
                -0.1753765195608139,
                0.3348264694213867
            ],
            "scale" : [
                1.515233039855957,
                2.871546506881714,
                1.910215973854065
            ],
            "translation" : [
                0.18305450677871704,
                2.406263589859009,
                -0.46212899684906006
            ]
        },
        {
            "mesh" : 2,
            "name" : "Text",
            "rotation" : [
                0.5,
                0.5,
                -0.5,
                0.4999999701976776
            ],
            "scale" : [
                1.646020770072937,
                1.646020770072937,
                1.646020770072937
            ],
            "translation" : [
                0,
                9.017529487609863,
                3.0566277503967285
            ]
        }
    ],
    "materials" : [
        {
            "doubleSided" : true,
            "name" : "Material.001",
            "pbrMetallicRoughness" : {
                "baseColorFactor" : [
                    0.8000000715255737,
                    0.14103233814239502,
                    0.19698268175125122,
                    1
                ],
                "metallicFactor" : 0,
                "roughnessFactor" : 0.4000000059604645
            }
        },
        {
            "doubleSided" : true,
            "name" : "Material.005",
            "pbrMetallicRoughness" : {
                "baseColorFactor" : [
                    0.16569530963897705,
                    0.16569530963897705,
                    0.16569530963897705,
                    1
                ],
                "metallicFactor" : 0,
                "roughnessFactor" : 0.4000000059604645
            }
        },
        {
            "doubleSided" : true,
            "name" : "Material.002",
            "pbrMetallicRoughness" : {
                "baseColorFactor" : [
                    0.8000000715255737,
                    0.2042437493801117,
                    0.20009997487068176,
                    1
                ],
                "metallicFactor" : 0,
                "roughnessFactor" : 0.4000000059604645
            }
        },
        {
            "doubleSided" : true,
            "name" : "Material.004",
            "pbrMetallicRoughness" : {
                "baseColorFactor" : [
                    0.2929515540599823,
                    0.2929515540599823,
                    0.2929515540599823,
                    1
                ],
                "metallicFactor" : 0,
                "roughnessFactor" : 0.4000000059604645
            }
        },
        {
            "doubleSided" : true,
            "name" : "Material.003",
            "pbrMetallicRoughness" : {
                "baseColorFactor" : [
                    0.0016551729058846831,
                    0.0016551729058846831,
                    0.0016551729058846831,
                    1
                ],
                "metallicFactor" : 0,
                "roughnessFactor" : 0.4000000059604645
            }
        }
    ],
    "meshes" : [
        {
            "name" : "Cylinder.001",
            "primitives" : [
                {
                    "attributes" : {
                        "POSITION" : 0,
                        "NORMAL" : 1,
                        "TEXCOORD_0" : 2
                    },
                    "indices" : 3,
                    "material" : 0
                },
                {
                    "attributes" : {
                        "POSITION" : 4,
                        "NORMAL" : 5,
                        "TEXCOORD_0" : 6
                    },
                    "indices" : 7,
                    "material" : 1
                }
            ]
        },
        {
            "name" : "Cylinder.002",
            "primitives" : [
                {
                    "attributes" : {
                        "POSITION" : 8,
                        "NORMAL" : 9,
                        "TEXCOORD_0" : 10
                    },
                    "indices" : 11,
                    "material" : 2
                },
                {
                    "attributes" : {
                        "POSITION" : 12,
                        "NORMAL" : 13,
                        "TEXCOORD_0" : 14
                    },
                    "indices" : 15,
                    "material" : 3
                }
            ]
        },
        {
            "name" : "Text",
            "primitives" : [
                {
                    "attributes" : {
                        "POSITION" : 16,
                        "NORMAL" : 17,
                        "TEXCOORD_0" : 18
                    },
                    "indices" : 19,
                    "material" : 4
                }
            ]
        }
    ],
    "accessors" : [
        {
            "bufferView" : 0,
            "componentType" : 5126,
            "count" : 248,
            "max" : [
                2.2232635021209717,
                1.716695785522461,
                1.0774365663528442
            ],
            "min" : [
                -2.2232630252838135,
                -1,
                -1.0774365663528442
            ],
            "type" : "VEC3"
        },
        {
            "bufferView" : 1,
            "componentType" : 5126,
            "count" : 248,
            "type" : "VEC3"
        },
        {
            "bufferView" : 2,
            "componentType" : 5126,
            "count" : 248,
            "type" : "VEC2"
        },
        {
            "bufferView" : 3,
            "componentType" : 5123,
            "count" : 702,
            "type" : "SCALAR"
        },
        {
            "bufferView" : 4,
            "componentType" : 5126,
            "count" : 16,
            "max" : [
                2.2232635021209717,
                1.716695785522461,
                0.5985916256904602
            ],
            "min" : [
                -2.2232630252838135,
                1.4880907535552979,
                -0.7618626952171326
            ],
            "type" : "VEC3"
        },
        {
            "bufferView" : 5,
            "componentType" : 5126,
            "count" : 16,
            "type" : "VEC3"
        },
        {
            "bufferView" : 6,
            "componentType" : 5126,
            "count" : 16,
            "type" : "VEC2"
        },
        {
            "bufferView" : 7,
            "componentType" : 5123,
            "count" : 42,
            "type" : "SCALAR"
        },
        {
            "bufferView" : 8,
            "componentType" : 5126,
            "count" : 404,
            "max" : [
                1,
                1,
                1.000000238418579
            ],
            "min" : [
                -0.6172783374786377,
                -1,
                -0.9999997615814209
            ],
            "type" : "VEC3"
        },
        {
            "bufferView" : 9,
            "componentType" : 5126,
            "count" : 404,
            "type" : "VEC3"
        },
        {
            "bufferView" : 10,
            "componentType" : 5126,
            "count" : 404,
            "type" : "VEC2"
        },
        {
            "bufferView" : 11,
            "componentType" : 5123,
            "count" : 1620,
            "type" : "SCALAR"
        },
        {
            "bufferView" : 12,
            "componentType" : 5126,
            "count" : 50,
            "max" : [
                0.5414268970489502,
                1,
                0.5608957409858704
            ],
            "min" : [
                0.09699714183807373,
                -1,
                -0.6595430970191956
            ],
            "type" : "VEC3"
        },
        {
            "bufferView" : 13,
            "componentType" : 5126,
            "count" : 50,
            "type" : "VEC3"
        },
        {
            "bufferView" : 14,
            "componentType" : 5126,
            "count" : 50,
            "type" : "VEC2"
        },
        {
            "bufferView" : 15,
            "componentType" : 5123,
            "count" : 216,
            "type" : "SCALAR"
        },
        {
            "bufferView" : 16,
            "componentType" : 5126,
            "count" : 4932,
            "max" : [
                4.495000839233398,
                0.059999994933605194,
                0.24000686407089233
            ],
            "min" : [
                0.0650000125169754,
                -0.059999994933605194,
                -0.6920000314712524
            ],
            "type" : "VEC3"
        },
        {
            "bufferView" : 17,
            "componentType" : 5126,
            "count" : 4932,
            "type" : "VEC3"
        },
        {
            "bufferView" : 18,
            "componentType" : 5126,
            "count" : 4932,
            "type" : "VEC2"
        },
        {
            "bufferView" : 19,
            "componentType" : 5123,
            "count" : 9312,
            "type" : "SCALAR"
        }
    ],
    "bufferViews" : [
        {
            "buffer" : 0,
            "byteLength" : 2976,
            "byteOffset" : 0
        },
        {
            "buffer" : 0,
            "byteLength" : 2976,
            "byteOffset" : 2976
        },
        {
            "buffer" : 0,
            "byteLength" : 1984,
            "byteOffset" : 5952
        },
        {
            "buffer" : 0,
            "byteLength" : 1404,
            "byteOffset" : 7936
        },
        {
            "buffer" : 0,
            "byteLength" : 192,
            "byteOffset" : 9340
        },
        {
            "buffer" : 0,
            "byteLength" : 192,
            "byteOffset" : 9532
        },
        {
            "buffer" : 0,
            "byteLength" : 128,
            "byteOffset" : 9724
        },
        {
            "buffer" : 0,
            "byteLength" : 84,
            "byteOffset" : 9852
        },
        {
            "buffer" : 0,
            "byteLength" : 4848,
            "byteOffset" : 9936
        },
        {
            "buffer" : 0,
            "byteLength" : 4848,
            "byteOffset" : 14784
        },
        {
            "buffer" : 0,
            "byteLength" : 3232,
            "byteOffset" : 19632
        },
        {
            "buffer" : 0,
            "byteLength" : 3240,
            "byteOffset" : 22864
        },
        {
            "buffer" : 0,
            "byteLength" : 600,
            "byteOffset" : 26104
        },
        {
            "buffer" : 0,
            "byteLength" : 600,
            "byteOffset" : 26704
        },
        {
            "buffer" : 0,
            "byteLength" : 400,
            "byteOffset" : 27304
        },
        {
            "buffer" : 0,
            "byteLength" : 432,
            "byteOffset" : 27704
        },
        {
            "buffer" : 0,
            "byteLength" : 59184,
            "byteOffset" : 28136
        },
        {
            "buffer" : 0,
            "byteLength" : 59184,
            "byteOffset" : 87320
        },
        {
            "buffer" : 0,
            "byteLength" : 39456,
            "byteOffset" : 146504
        },
        {
            "buffer" : 0,
            "byteLength" : 18624,
            "byteOffset" : 185960
        }
    ],
    "buffers" : [
        {
            "byteLength" : 204584,
            "uri" : "data:application/octet-stream;base64,"
        }
    ]
}
