{
    "asset" : {
        "generator" : "Khronos glTF Blender I/O v1.7.33",
        "version" : "2.0"
    },
    "scene" : 0,
    "scenes" : [
        {
            "name" : "Scene",
            "nodes" : [
                2
            ]
        }
    ],
    "nodes" : [
        {
            "mesh" : 0,
            "name" : "root.001",
            "rotation" : [
                0,
                -1,
                0,
                7.549790126404332e-08
            ],
            "scale" : [
                0.0009999998146668077,
                0.0010000000474974513,
                0.0009999998146668077
            ],
            "translation" : [
                -0.007249211426824331,
                0.20000293850898743,
                0.027066264301538467
            ]
        },
        {
            "mesh" : 1,
            "name" : "root.002",
            "scale" : [
                0.0008179828291758895,
                0.0007808624650351703,
                0.0010000000474974513
            ],
            "translation" : [
                -0.008331298828125,
                0.19807861745357513,
                -0.0667843148112297
            ]
        },
        {
            "children" : [
                0,
                1
            ],
            "name" : "root",
            "rotation" : [
                0.7071068286895752,
                0,
                0,
                0.7071067094802856
            ],
            "scale" : [
                26.34349250793457,
                26.34349250793457,
                26.34349250793457
            ]
        }
    ],
    "materials" : [
        {
            "alphaMode" : "BLEND",
            "doubleSided" : true,
            "name" : "Material_56",
            "pbrMetallicRoughness" : {
                "baseColorTexture" : {
                    "index" : 0
                },
                "roughnessFactor" : 0
            }
        },
        {
            "alphaMode" : "BLEND",
            "doubleSided" : true,
            "name" : "Material_58",
            "pbrMetallicRoughness" : {
                "baseColorTexture" : {
                    "index" : 1
                },
                "roughnessFactor" : 0
            }
        }
    ],
    "meshes" : [
        {
            "name" : "mesh_id27",
            "primitives" : [
                {
                    "attributes" : {
                        "POSITION" : 0,
                        "NORMAL" : 1,
                        "TEXCOORD_0" : 2,
                        "COLOR_0" : 3
                    },
                    "indices" : 4,
                    "material" : 0
                }
            ]
        },
        {
            "name" : "mesh_id29",
            "primitives" : [
                {
                    "attributes" : {
                        "POSITION" : 5,
                        "NORMAL" : 6,
                        "TEXCOORD_0" : 7,
                        "COLOR_0" : 8
                    },
                    "indices" : 9,
                    "material" : 1
                }
            ]
        }
    ],
    "textures" : [
        {
            "sampler" : 0,
            "source" : 0
        },
        {
            "sampler" : 0,
            "source" : 1
        }
    ],
    "images" : [
        {
            "bufferView" : 5,
            "mimeType" : "image/png",
            "name" : "435"
        },
        {
            "bufferView" : 11,
            "mimeType" : "image/png",
            "name" : "445"
        }
    ],
    "accessors" : [
        {
            "bufferView" : 0,
            "componentType" : 5126,
            "count" : 328,
            "max" : [
                35.27690124511719,
                35.27690124511719,
                77.29130554199219
            ],
            "min" : [
                -35.27690124511719,
                -35.27690124511719,
                -77.29130554199219
            ],
            "type" : "VEC3"
        },
        {
            "bufferView" : 1,
            "componentType" : 5126,
            "count" : 328,
            "type" : "VEC3"
        },
        {
            "bufferView" : 2,
            "componentType" : 5126,
            "count" : 328,
            "type" : "VEC2"
        },
        {
            "bufferView" : 3,
            "componentType" : 5123,
            "count" : 328,
            "normalized" : true,
            "type" : "VEC4"
        },
        {
            "bufferView" : 4,
            "componentType" : 5123,
            "count" : 480,
            "type" : "SCALAR"
        },
        {
            "bufferView" : 6,
            "componentType" : 5126,
            "count" : 3530,
            "max" : [
                42.47500228881836,
                42.47500228881836,
                16.559282302856445
            ],
            "min" : [
                -42.47500228881836,
                -42.474998474121094,
                -16.592466354370117
            ],
            "type" : "VEC3"
        },
        {
            "bufferView" : 7,
            "componentType" : 5126,
            "count" : 3530,
            "type" : "VEC3"
        },
        {
            "bufferView" : 8,
            "componentType" : 5126,
            "count" : 3530,
            "type" : "VEC2"
        },
        {
            "bufferView" : 9,
            "componentType" : 5123,
            "count" : 3530,
            "normalized" : true,
            "type" : "VEC4"
        },
        {
            "bufferView" : 10,
            "componentType" : 5123,
            "count" : 19200,
            "type" : "SCALAR"
        }
    ],
    "bufferViews" : [
        {
            "buffer" : 0,
            "byteLength" : 3936,
            "byteOffset" : 0
        },
        {
            "buffer" : 0,
            "byteLength" : 3936,
            "byteOffset" : 3936
        },
        {
            "buffer" : 0,
            "byteLength" : 2624,
            "byteOffset" : 7872
        },
        {
            "buffer" : 0,
            "byteLength" : 2624,
            "byteOffset" : 10496
        },
        {
            "buffer" : 0,
            "byteLength" : 960,
            "byteOffset" : 13120
        },
        {
            "buffer" : 0,
            "byteLength" : 101,
            "byteOffset" : 14080
        },
        {
            "buffer" : 0,
            "byteLength" : 42360,
            "byteOffset" : 14184
        },
        {
            "buffer" : 0,
            "byteLength" : 42360,
            "byteOffset" : 56544
        },
        {
            "buffer" : 0,
            "byteLength" : 28240,
            "byteOffset" : 98904
        },
        {
            "buffer" : 0,
            "byteLength" : 28240,
            "byteOffset" : 127144
        },
        {
            "buffer" : 0,
            "byteLength" : 38400,
            "byteOffset" : 155384
        },
        {
            "buffer" : 0,
            "byteLength" : 102,
            "byteOffset" : 193784
        }
    ],
    "samplers" : [
        {
            "magFilter" : 9729,
            "minFilter" : 9987
        }
    ],
    "buffers" : [
        {
            "byteLength" : 193888,
            "uri" : "data:application/octet-stream;base64,"
        }
    ]
}
