{
    "asset" : {
        "generator" : "Khronos glTF Blender I/O v1.3.48",
        "version" : "2.0"
    },
    "scene" : 0,
    "scenes" : [
        {
            "name" : "Scene",
            "nodes" : [
                0
            ]
        }
    ],
    "nodes" : [
        {
            "mesh" : 0,
            "name" : "10197_Peanut_v1.-L3",
            "rotation" : [
                0,
                0,
                0,
                -1
            ],
            "translation" : [
                0,
                0.6110039949417114,
                -1.575116515159607
            ]
        }
    ],
    "materials" : [
        {
            "alphaMode" : "BLEND",
            "doubleSided" : true,
            "emissiveFactor" : [
                0,
                0,
                0
            ],
            "name" : "blinn1SG",
            "pbrMetallicRoughness" : {
                "baseColorTexture" : {
                    "index" : 0,
                    "texCoord" : 0
                },
                "metallicFactor" : 0,
                "roughnessFactor" : 1
            }
        }
    ],
    "meshes" : [
        {
            "name" : "10197_Peanut_v1.-L3",
            "primitives" : [
                {
                    "attributes" : {
                        "POSITION" : 0,
                        "NORMAL" : 1,
                        "TEXCOORD_0" : 2
                    },
                    "indices" : 3,
                    "material" : 0
                }
            ]
        }
    ],
    "textures" : [
        {
            "source" : 0
        }
    ],
    "images" : [
        {
            "bufferView" : 4,
            "mimeType" : "image/jpeg",
            "name" : "Peanut"
        }
    ],
    "accessors" : [
        {
            "bufferView" : 0,
            "componentType" : 5126,
            "count" : 11620,
            "max" : [
                0.6078709959983826,
                0.6067730188369751,
                2.987006902694702
            ],
            "min" : [
                -0.6082760095596313,
                -0.6099389791488647,
                0.03931700065732002
            ],
            "type" : "VEC3"
        },
        {
            "bufferView" : 1,
            "componentType" : 5126,
            "count" : 11620,
            "type" : "VEC3"
        },
        {
            "bufferView" : 2,
            "componentType" : 5126,
            "count" : 11620,
            "type" : "VEC2"
        },
        {
            "bufferView" : 3,
            "componentType" : 5123,
            "count" : 66816,
            "type" : "SCALAR"
        }
    ],
    "bufferViews" : [
        {
            "buffer" : 0,
            "byteLength" : 139440,
            "byteOffset" : 0
        },
        {
            "buffer" : 0,
            "byteLength" : 139440,
            "byteOffset" : 139440
        },
        {
            "buffer" : 0,
            "byteLength" : 92960,
            "byteOffset" : 278880
        },
        {
            "buffer" : 0,
            "byteLength" : 133632,
            "byteOffset" : 371840
        },
        {
            "buffer" : 0,
            "byteLength" : 420854,
            "byteOffset" : 505472
        }
    ],
    "buffers" : [
        {
            "byteLength" : 926328,
            "uri" : "data:application/octet-stream;base64,"
        }
    ]
}
