{
    "asset" : {
        "generator" : "Khronos glTF Blender I/O v1.7.33",
        "version" : "2.0"
    },
    "scene" : 0,
    "scenes" : [
        {
            "name" : "Scene",
            "nodes" : [
                0
            ]
        }
    ],
    "nodes" : [
        {
            "mesh" : 0,
            "name" : "node_id30",
            "rotation" : [
                -0.7071066498756409,
                0,
                0,
                0.70710688829422
            ],
            "scale" : [
                0.022287996485829353,
                0.022287989035248756,
                0.022287992760539055
            ],
            "translation" : [
                0.0005704313516616821,
                0.009384529665112495,
                0.006520864553749561
            ]
        }
    ],
    "materials" : [
        {
            "doubleSided" : true,
            "name" : "Material.006",
            "pbrMetallicRoughness" : {
                "baseColorFactor" : [
                    0.709359347820282,
                    0.2698240280151367,
                    0.8000000715255737,
                    1
                ],
                "metallicFactor" : 0,
                "roughnessFactor" : 0.5
            }
        }
    ],
    "meshes" : [
        {
            "name" : "mesh_id31.000",
            "primitives" : [
                {
                    "attributes" : {
                        "POSITION" : 0,
                        "NORMAL" : 1,
                        "TEXCOORD_0" : 2
                    },
                    "indices" : 3,
                    "material" : 0
                }
            ]
        }
    ],
    "accessors" : [
        {
            "bufferView" : 0,
            "componentType" : 5126,
            "count" : 882,
            "max" : [
                1.7438867092132568,
                2.9315099716186523,
                1.1266937255859375
            ],
            "min" : [
                -1.9761133193969727,
                -2.2604904174804688,
                -1.1833038330078125
            ],
            "type" : "VEC3"
        },
        {
            "bufferView" : 1,
            "componentType" : 5126,
            "count" : 882,
            "type" : "VEC3"
        },
        {
            "bufferView" : 2,
            "componentType" : 5126,
            "count" : 882,
            "type" : "VEC2"
        },
        {
            "bufferView" : 3,
            "componentType" : 5123,
            "count" : 882,
            "type" : "SCALAR"
        }
    ],
    "bufferViews" : [
        {
            "buffer" : 0,
            "byteLength" : 10584,
            "byteOffset" : 0
        },
        {
            "buffer" : 0,
            "byteLength" : 10584,
            "byteOffset" : 10584
        },
        {
            "buffer" : 0,
            "byteLength" : 7056,
            "byteOffset" : 21168
        },
        {
            "buffer" : 0,
            "byteLength" : 1764,
            "byteOffset" : 28224
        }
    ],
    "buffers" : [
        {
            "byteLength" : 29988,
            "uri" : "data:application/octet-stream;base64,"
        }
    ]
}
