{
    "asset" : {
        "generator" : "Khronos glTF Blender I/O v1.3.48",
        "version" : "2.0"
    },
    "scene" : 0,
    "scenes" : [
        {
            "name" : "Scene",
            "nodes" : [
                0
            ]
        }
    ],
    "nodes" : [
        {
            "mesh" : 0,
            "name" : "10051_Squirrel_v2_L3",
            "rotation" : [
                0,
                0,
                0,
                -1
            ],
            "scale" : [
                0.10000002384185791,
                0.10000002384185791,
                0.10000002384185791
            ]
        }
    ],
    "materials" : [
        {
            "doubleSided" : true,
            "emissiveFactor" : [
                0,
                0,
                0
            ],
            "name" : "10051_Squirrel",
            "pbrMetallicRoughness" : {
                "baseColorTexture" : {
                    "index" : 0,
                    "texCoord" : 0
                },
                "metallicFactor" : 0,
                "roughnessFactor" : 0.8945907354354858
            }
        }
    ],
    "meshes" : [
        {
            "name" : "10051_Squirrel_v2_L3",
            "primitives" : [
                {
                    "attributes" : {
                        "POSITION" : 0,
                        "NORMAL" : 1,
                        "TEXCOORD_0" : 2
                    },
                    "indices" : 3,
                    "material" : 0
                }
            ]
        }
    ],
    "textures" : [
        {
            "source" : 0
        }
    ],
    "images" : [
        {
            "bufferView" : 4,
            "mimeType" : "image/jpeg",
            "name" : "10051_Squirrel_v2_Diffuse"
        }
    ],
    "accessors" : [
        {
            "bufferView" : 0,
            "componentType" : 5126,
            "count" : 9641,
            "max" : [
                10.211899757385254,
                39.840999603271484,
                15.205599784851074
            ],
            "min" : [
                -10.202500343322754,
                0.5027999877929688,
                -28.093299865722656
            ],
            "type" : "VEC3"
        },
        {
            "bufferView" : 1,
            "componentType" : 5126,
            "count" : 9641,
            "type" : "VEC3"
        },
        {
            "bufferView" : 2,
            "componentType" : 5126,
            "count" : 9641,
            "type" : "VEC2"
        },
        {
            "bufferView" : 3,
            "componentType" : 5123,
            "count" : 53760,
            "type" : "SCALAR"
        }
    ],
    "bufferViews" : [
        {
            "buffer" : 0,
            "byteLength" : 115692,
            "byteOffset" : 0
        },
        {
            "buffer" : 0,
            "byteLength" : 115692,
            "byteOffset" : 115692
        },
        {
            "buffer" : 0,
            "byteLength" : 77128,
            "byteOffset" : 231384
        },
        {
            "buffer" : 0,
            "byteLength" : 107520,
            "byteOffset" : 308512
        },
        {
            "buffer" : 0,
            "byteLength" : 111881,
            "byteOffset" : 416032
        }
    ],
    "buffers" : [
        {
            "byteLength" : 527916,
            "uri" : "data:application/octet-stream;base64,"
        }
    ]
}
