{
    "asset" : {
        "generator" : "Khronos glTF Blender I/O v1.7.33",
        "version" : "2.0"
    },
    "scene" : 0,
    "scenes" : [
        {
            "name" : "Scene",
            "nodes" : [
                0
            ]
        }
    ],
    "nodes" : [
        {
            "mesh" : 0,
            "name" : "Plano.003_Plano.004",
            "rotation" : [
                0.7071068286895752,
                0,
                0,
                0.7071067094802856
            ],
            "scale" : [
                21.1400203704834,
                21.1400203704834,
                21.1400203704834
            ]
        }
    ],
    "materials" : [
        {
            "doubleSided" : true,
            "name" : "RedPaint",
            "pbrMetallicRoughness" : {
                "baseColorFactor" : [
                    0.800000011920929,
                    0.19834600389003754,
                    0.18828099966049194,
                    1
                ],
                "metallicFactor" : 0,
                "roughnessFactor" : 0.5
            }
        },
        {
            "doubleSided" : true,
            "name" : "BlackWindow",
            "pbrMetallicRoughness" : {
                "baseColorFactor" : [
                    0.013411000370979309,
                    0.005305000115185976,
                    0.005142000038176775,
                    1
                ],
                "metallicFactor" : 0,
                "roughnessFactor" : 0.5
            }
        },
        {
            "doubleSided" : true,
            "name" : "BlackMatte",
            "pbrMetallicRoughness" : {
                "baseColorFactor" : [
                    0.04596100002527237,
                    0.04684299975633621,
                    0.04954899847507477,
                    1
                ],
                "metallicFactor" : 0,
                "roughnessFactor" : 0.5
            }
        },
        {
            "doubleSided" : true,
            "name" : "RedPaint.001",
            "pbrMetallicRoughness" : {
                "baseColorFactor" : [
                    0.02976899966597557,
                    0.22946900129318237,
                    0.800000011920929,
                    1
                ],
                "metallicFactor" : 0,
                "roughnessFactor" : 0.5
            }
        }
    ],
    "meshes" : [
        {
            "name" : "Plano.003_Plano.004",
            "primitives" : [
                {
                    "attributes" : {
                        "POSITION" : 0,
                        "NORMAL" : 1
                    },
                    "indices" : 2,
                    "material" : 0
                },
                {
                    "attributes" : {
                        "POSITION" : 3,
                        "NORMAL" : 4
                    },
                    "indices" : 5,
                    "material" : 1
                },
                {
                    "attributes" : {
                        "POSITION" : 6,
                        "NORMAL" : 7
                    },
                    "indices" : 8,
                    "material" : 2
                },
                {
                    "attributes" : {
                        "POSITION" : 9,
                        "NORMAL" : 10
                    },
                    "indices" : 11,
                    "material" : 3
                }
            ]
        }
    ],
    "accessors" : [
        {
            "bufferView" : 0,
            "componentType" : 5126,
            "count" : 1242,
            "max" : [
                0.1126059964299202,
                0.0903099998831749,
                -0.02225000038743019
            ],
            "min" : [
                -0.11309800297021866,
                -0.284417986869812,
                -0.16582100093364716
            ],
            "type" : "VEC3"
        },
        {
            "bufferView" : 1,
            "componentType" : 5126,
            "count" : 1242,
            "type" : "VEC3"
        },
        {
            "bufferView" : 2,
            "componentType" : 5123,
            "count" : 3786,
            "type" : "SCALAR"
        },
        {
            "bufferView" : 3,
            "componentType" : 5126,
            "count" : 40,
            "max" : [
                0.08483800292015076,
                0.08108600229024887,
                -0.06865199655294418
            ],
            "min" : [
                -0.08414799720048904,
                -0.0778219997882843,
                -0.13730600476264954
            ],
            "type" : "VEC3"
        },
        {
            "bufferView" : 4,
            "componentType" : 5126,
            "count" : 40,
            "type" : "VEC3"
        },
        {
            "bufferView" : 5,
            "componentType" : 5123,
            "count" : 90,
            "type" : "SCALAR"
        },
        {
            "bufferView" : 6,
            "componentType" : 5126,
            "count" : 11092,
            "max" : [
                0.1031859964132309,
                0.09238599985837936,
                -0.006905000191181898
            ],
            "min" : [
                -0.10203299671411514,
                -0.2885409891605377,
                -0.1674869954586029
            ],
            "type" : "VEC3"
        },
        {
            "bufferView" : 7,
            "componentType" : 5126,
            "count" : 11092,
            "type" : "VEC3"
        },
        {
            "bufferView" : 8,
            "componentType" : 5123,
            "count" : 25260,
            "type" : "SCALAR"
        },
        {
            "bufferView" : 9,
            "componentType" : 5126,
            "count" : 274,
            "max" : [
                0.09065499901771545,
                -0.026048999279737473,
                -0.06889999657869339
            ],
            "min" : [
                -0.09423299878835678,
                -0.3117389976978302,
                -0.19508400559425354
            ],
            "type" : "VEC3"
        },
        {
            "bufferView" : 10,
            "componentType" : 5126,
            "count" : 274,
            "type" : "VEC3"
        },
        {
            "bufferView" : 11,
            "componentType" : 5123,
            "count" : 468,
            "type" : "SCALAR"
        }
    ],
    "bufferViews" : [
        {
            "buffer" : 0,
            "byteLength" : 14904,
            "byteOffset" : 0
        },
        {
            "buffer" : 0,
            "byteLength" : 14904,
            "byteOffset" : 14904
        },
        {
            "buffer" : 0,
            "byteLength" : 7572,
            "byteOffset" : 29808
        },
        {
            "buffer" : 0,
            "byteLength" : 480,
            "byteOffset" : 37380
        },
        {
            "buffer" : 0,
            "byteLength" : 480,
            "byteOffset" : 37860
        },
        {
            "buffer" : 0,
            "byteLength" : 180,
            "byteOffset" : 38340
        },
        {
            "buffer" : 0,
            "byteLength" : 133104,
            "byteOffset" : 38520
        },
        {
            "buffer" : 0,
            "byteLength" : 133104,
            "byteOffset" : 171624
        },
        {
            "buffer" : 0,
            "byteLength" : 50520,
            "byteOffset" : 304728
        },
        {
            "buffer" : 0,
            "byteLength" : 3288,
            "byteOffset" : 355248
        },
        {
            "buffer" : 0,
            "byteLength" : 3288,
            "byteOffset" : 358536
        },
        {
            "buffer" : 0,
            "byteLength" : 936,
            "byteOffset" : 361824
        }
    ],
    "buffers" : [
        {
            "byteLength" : 362760,
            "uri" : "data:application/octet-stream;base64,"
        }
    ]
}
